<svg width="372" height="201" viewBox="0 0 372 201" fill="none" xmlns="http://www.w3.org/2000/svg">
  <path fill-rule="evenodd" clip-rule="evenodd"
    d="M187.325 156.446C192.326 155.933 197.328 155.419 202.329 154.905C201.436 156.271 199.639 156.656 198.026 156.902C188.538 158.346 178.687 158.986 169.474 156.298C159.82 153.482 149.335 153.581 139.736 156.581C139.813 155.381 141.156 154.738 142.308 154.393C150.068 152.072 158.466 151.924 166.303 153.971C169.77 154.877 173.143 156.204 176.694 156.69C180.215 157.172 183.79 156.809 187.325 156.446Z"
    fill="#22C55E" />
  <path fill-rule="evenodd" clip-rule="evenodd"
    d="M148.083 56.5537C152.986 55.3122 158.184 55.2729 162.923 53.5064C163.175 53.6998 163.427 53.8933 163.678 54.0867C161.46 56.2382 158.022 56.2615 154.942 56.5206C149.089 57.013 143.352 58.8521 138.303 61.8549C135.881 63.2955 133.547 65.0287 130.804 65.6757C124.266 67.2176 118.249 70.8905 113.89 76.0007C113.595 75.4883 113.102 75.0937 112.537 74.9192C116.003 71.8582 119.822 69.1964 123.893 67.0032C126.355 65.6767 128.906 64.5227 131.454 63.3699C133.597 62.4007 135.739 61.4315 137.882 60.4623C141.204 58.9594 144.548 57.4489 148.083 56.5537Z"
    fill="#22C55E" />
  <path fill-rule="evenodd" clip-rule="evenodd"
    d="M243.781 -0.801303C242.926 0.366679 242.125 1.5807 241.151 2.65161C239.862 4.06844 238.299 5.20326 236.736 6.31094C232.013 9.65931 227.138 12.885 221.748 14.9984C219.237 15.9829 216.633 16.7182 214.128 17.7186C206.28 20.8534 199.656 26.4986 194.072 32.8423C193.638 33.3358 193.174 33.8571 192.544 34.0456C191.914 34.2342 191.087 33.9155 190.993 33.2649C197.559 27.0298 204.308 20.6714 212.613 17.0617C216.312 15.4536 220.246 14.4281 223.929 12.7817C227.592 11.144 230.957 8.91464 234.252 6.62476C236.444 5.10143 238.63 3.53262 240.455 1.58472C243.329 -1.48166 245.298 -5.46931 248.798 -7.79596C249.222 -8.07825 249.968 -8.22391 250.094 -7.72995C247.751 -5.6541 245.63 -3.32695 243.781 -0.801303Z"
    fill="#22C55E" />
  <path fill-rule="evenodd" clip-rule="evenodd"
    d="M78.8072 24.175C79.7106 25.9415 81.3383 27.3236 83.2278 27.9289C83.2196 28.1492 83.2113 28.3696 83.2031 28.5899C81.5769 29.5734 80.7018 31.6565 81.1376 33.5063C81.2717 34.0757 80.4576 34.4774 79.929 34.2269C79.4004 33.9763 79.1342 33.3921 78.8852 32.8628C78.5726 32.1984 78.2122 31.5381 77.6701 31.043C77.1279 30.5479 76.3711 30.238 75.6526 30.3894C75.1262 30.5002 74.6444 29.9398 74.6533 29.402C74.6621 28.8641 75.0111 28.3924 75.3954 28.016C75.7798 27.6397 76.2212 27.3085 76.507 26.8527C76.8412 26.3196 76.9279 25.6704 76.9631 25.042C76.9851 24.6504 76.9938 24.2431 77.1705 23.8928C77.3472 23.5426 77.7522 23.2705 78.1267 23.3874C78.4676 23.4938 78.6446 23.857 78.8072 24.175Z"
    fill="#22C55E" />
  <path fill-rule="evenodd" clip-rule="evenodd"
    d="M276.048 163.93C269.031 164.88 261.792 164.146 255.109 161.807C253.96 161.405 252.602 160.604 252.769 159.398C259.308 162.256 266.597 163.378 273.694 162.621C278.421 162.116 283.054 160.797 287.805 160.616C293.184 160.412 298.495 161.673 303.828 162.404C309.161 163.135 314.809 163.293 319.695 161.034C320.151 160.823 320.643 160.585 321.135 160.688C321.627 160.792 322.01 161.437 321.674 161.812C321.572 161.926 321.427 161.99 321.287 162.05C317.364 163.721 313.084 164.549 308.82 164.462C301.976 164.322 295.296 161.864 288.454 162.091C284.272 162.23 280.194 163.369 276.048 163.93Z"
    fill="#22C55E" />
  <path fill-rule="evenodd" clip-rule="evenodd"
    d="M298.801 42.3781C298.877 43.0258 299.036 43.9327 298.409 44.112C297.824 44.2793 297.452 43.5278 297.207 42.971C296.548 41.4733 294.98 40.4209 293.345 40.3776C292.697 40.3604 292.588 39.3372 293.043 38.876C293.498 38.4149 294.191 38.3048 294.767 38.0083C295.664 37.5461 296.257 36.6269 296.549 35.6604C296.84 34.694 296.869 33.6705 296.895 32.6613C296.901 32.4059 297.192 32.2308 297.446 32.264C297.699 32.2972 297.908 32.4777 298.074 32.6715C299.215 33.9998 299.068 36.1658 300.374 37.3319C300.981 37.8738 301.841 38.1292 302.311 38.7935C301.944 39.2321 301.295 39.255 300.747 39.4191C299.519 39.7871 298.652 41.1046 298.801 42.3781Z"
    fill="#22C55E" />
  <path fill-rule="evenodd" clip-rule="evenodd"
    d="M111.837 37.947C112.748 38.6194 113.223 39.7196 113.962 40.5772C114.744 41.4858 115.841 42.1186 117.019 42.3414C115.351 43.2599 114.257 45.1364 114.28 47.0403C114.285 47.49 114.218 48.1062 113.77 48.1453C113.654 48.1554 113.54 48.1171 113.434 48.0722C111.679 47.3334 110.96 44.7938 109.069 44.5732C108.402 44.4954 108.284 43.5004 108.671 42.9514C109.057 42.4025 109.708 42.0948 110.133 41.5745C110.989 40.5246 110.786 38.8013 111.837 37.947Z"
    fill="#22C55E" />
  <path fill-rule="evenodd" clip-rule="evenodd"
    d="M154.914 14.645C154.497 14.8939 153.944 14.631 153.64 14.2523C153.336 13.8737 153.179 13.3955 152.888 13.0067C152.139 12.0052 150.638 11.7566 149.977 10.6948C149.767 10.3575 149.681 9.87234 149.963 9.59234C150.075 9.48081 150.228 9.42153 150.369 9.35038C151.377 8.84295 151.884 7.6922 152.134 6.59118C152.383 5.49016 152.463 4.32995 152.967 3.31971C153.092 3.06826 153.26 2.81413 153.522 2.71131C153.783 2.6085 154.147 2.74017 154.187 3.01828C154.333 4.03084 154.48 5.0434 154.626 6.05596C154.71 6.64188 154.802 7.24857 155.125 7.74485C155.448 8.24112 156.071 8.5948 156.635 8.4167C157.028 8.29284 157.342 8.84695 157.201 9.23371C157.06 9.62047 156.684 9.85942 156.376 10.1325C155.608 10.8129 155.182 11.8619 155.259 12.8851C155.306 13.5176 155.459 14.32 154.914 14.645Z"
    fill="#22C55E" />
  <path fill-rule="evenodd" clip-rule="evenodd"
    d="M252.965 178.164C254.143 177.194 254.939 175.771 255.148 174.259C255.227 173.689 256.145 173.664 256.493 174.123C256.84 174.581 256.793 175.214 256.775 175.789C256.752 176.538 256.816 177.321 257.197 177.966C257.579 178.611 258.353 179.073 259.079 178.889C259.365 178.816 259.632 179.134 259.611 179.428C259.59 179.722 259.377 179.966 259.149 180.152C258.26 180.881 256.929 181.204 256.51 182.274C256.362 182.651 256.358 183.067 256.281 183.465C256.205 183.864 256.025 184.281 255.662 184.461C255.299 184.641 254.75 184.419 254.748 184.014C254.744 182.602 254.039 181.209 252.905 180.369C252.576 180.125 252.182 179.88 252.109 179.477C252.011 178.936 252.54 178.514 252.965 178.164Z"
    fill="#22C55E" />
  <path fill-rule="evenodd" clip-rule="evenodd"
    d="M89.2036 102.121C90.6455 103.203 92.4092 103.851 94.2086 103.958C94.6191 103.983 94.5902 104.601 94.4282 104.979C93.9656 106.058 93.503 107.138 93.0403 108.217C93.2991 108.593 93.5707 109.03 93.4697 109.475C93.3687 109.921 92.657 110.161 92.4609 109.749C91.7017 108.152 89.7866 107.198 88.0549 107.555C88.142 106.944 88.4782 106.403 88.7296 105.84C89.2462 104.682 89.4133 103.371 89.2036 102.121Z"
    fill="#22C55E" />
  <path fill-rule="evenodd" clip-rule="evenodd"
    d="M178.609 145.784C178 144.293 176.453 143.235 174.843 143.209C174.403 141.642 176.297 140.347 176.466 138.728C176.501 138.392 176.46 138.046 176.546 137.72C176.632 137.393 176.906 137.076 177.243 137.098C177.713 138.242 178.558 139.229 179.617 139.868C179.892 140.034 180.191 140.187 180.376 140.45C180.56 140.713 180.574 141.131 180.31 141.313C178.95 142.254 178.717 144.135 178.609 145.784Z"
    fill="#22C55E" />
  <path fill-rule="evenodd" clip-rule="evenodd"
    d="M119.623 134.633C119.845 134.525 120.103 134.492 120.346 134.54C120.535 136.184 121.775 137.659 123.362 138.128C122.651 139.56 122.254 141.147 122.208 142.744C122.049 142.873 121.819 142.733 121.666 142.598C120.448 141.521 119.23 140.443 118.012 139.366C119.189 138.114 119.792 136.343 119.623 134.633Z"
    fill="#22C55E" />
  <path fill-rule="evenodd" clip-rule="evenodd"
    d="M282.249 120.29C282.049 120.175 281.829 120.063 281.598 120.081C281.391 120.096 281.2 120.215 280.992 120.22C280.784 120.224 280.552 120.003 280.668 119.83C282.665 118.77 283.476 116.377 284.112 114.208C284.216 114.014 284.535 114.068 284.659 114.249C284.784 114.43 284.776 114.667 284.778 114.886C284.783 115.839 285.062 116.808 285.668 117.543C286.274 118.279 287.226 118.75 288.175 118.666C286.736 119.658 285.165 120.856 284.95 122.591C284.201 121.667 283.28 120.883 282.249 120.29Z"
    fill="#22C55E" />
  <path fill-rule="evenodd" clip-rule="evenodd"
    d="M231.112 152.983C231.469 152.446 232.242 152.437 232.884 152.504C235.897 152.816 238.87 153.508 241.712 154.557C243.991 155.398 246.193 156.473 248.184 157.865C246.133 158.011 244.207 156.998 242.307 156.212C239.705 155.135 236.96 154.447 234.228 153.763C233.189 153.503 232.151 153.243 231.112 152.983Z"
    fill="#22C55E" />
  <path fill-rule="evenodd" clip-rule="evenodd"
    d="M187.125 186.603C184.903 185.948 182.474 184.348 182.609 182.036C182.702 180.433 184.019 179.198 185.307 178.239C187.076 176.923 188.974 175.78 190.966 174.834C192.319 174.191 193.901 173.414 194.162 171.94C195.691 163.318 202.249 155.796 210.559 153.039C218.87 150.282 228.586 152.37 235.077 158.247C236.364 159.412 237.951 160.822 239.593 160.257C242.893 159.123 246.582 158.353 249.815 159.667C251.009 160.152 252.214 161.143 252.154 162.43C252.126 163.04 251.812 163.597 251.484 164.111C249.445 167.31 246.499 169.924 243.08 171.567C241.388 172.38 240.278 174.073 239.604 175.825C238.931 177.577 238.611 179.446 238.006 181.223C235.6 188.282 228.59 193.265 221.185 194.15C213.78 195.034 206.212 192.172 200.541 187.328C199.894 186.775 199.089 186.155 198.281 186.422C194.695 187.607 190.748 187.671 187.125 186.603ZM198.415 180.079C198.785 180.258 199.212 180.264 199.623 180.259C208.516 180.155 217.036 176.914 225.336 173.717C228.936 172.331 232.536 170.944 236.135 169.558C236.87 169.275 237.684 168.915 237.962 168.178C238.144 167.694 238.047 167.153 237.921 166.651C236.821 162.265 233.666 158.53 229.731 156.301C225.797 154.072 221.146 153.276 216.635 153.594C210.474 154.028 204.331 156.63 200.352 161.354C196.373 166.078 194.884 173.017 197.327 178.689C197.565 179.242 197.874 179.817 198.415 180.079ZM236.805 175.068C226.431 179.987 215.356 183.422 204.02 185.239C203.23 185.365 202.89 186.417 203.2 187.155C203.51 187.893 204.23 188.363 204.922 188.765C209.101 191.194 213.83 192.808 218.664 192.877C223.498 192.947 228.433 191.383 232.002 188.122C235.572 184.862 237.607 179.836 236.805 175.068ZM184.465 182.94C184.74 183.776 185.596 184.269 186.418 184.585C189.64 185.822 193.23 185.504 196.65 185.04C210.455 183.166 223.972 179.191 236.593 173.293C241.65 170.93 246.783 168.062 249.777 163.352C250.037 162.943 250.287 162.486 250.238 162.005C250.135 160.991 248.873 160.592 247.856 160.544C245.334 160.426 242.836 160.988 240.375 161.546C239.517 161.741 238.446 162.207 238.525 163.084C238.613 164.046 239.962 164.226 240.895 163.978C241.829 163.729 242.984 163.388 243.633 164.104C244.52 165.083 243.298 166.535 242.177 167.234C233.703 172.514 224.117 175.688 214.635 178.814C212.398 179.551 210.155 180.29 207.847 180.764C205.867 181.171 203.851 181.379 201.84 181.587C199.958 181.781 198.077 181.975 196.195 182.169C195.241 182.268 194.249 182.362 193.348 182.035C192.447 181.708 191.67 180.826 191.795 179.876C191.933 178.824 193.008 178.215 193.811 177.521C194.613 176.828 195.16 175.424 194.295 174.81C191.352 176.007 188.59 177.646 186.13 179.655C185.116 180.483 184.057 181.696 184.465 182.94ZM239.86 167.209C240.642 166.715 241.424 166.221 242.206 165.726C242.446 165.575 242.72 165.329 242.62 165.065C242.532 164.833 242.226 164.793 241.979 164.791C241.264 164.785 240.47 164.809 239.954 165.303C239.448 165.788 239.404 166.676 239.86 167.209ZM193.483 179.717C193.425 179.78 193.366 179.846 193.341 179.927C193.233 180.277 193.774 180.462 194.121 180.346C194.468 180.23 194.86 180.007 195.165 180.208C195.605 180.499 196.222 179.897 196.061 179.395C195.9 178.893 195.262 178.677 194.752 178.811C194.242 178.945 193.841 179.33 193.483 179.717Z"
    fill="#22C55E" />
  <path fill-rule="evenodd" clip-rule="evenodd"
    d="M227.537 190.086C227.158 190.258 226.575 190.309 226.455 189.911C227.805 189.103 229.155 188.295 230.506 187.487C229.8 188.62 228.753 189.537 227.537 190.086Z"
    fill="#3F3F46" />
  <path fill-rule="evenodd" clip-rule="evenodd"
    d="M204.911 186.612C205.489 187.239 206.067 187.866 206.645 188.493C206.738 188.594 206.673 188.788 206.539 188.812C205.406 188.291 204.43 187.434 203.767 186.377C203.971 185.963 204.598 186.272 204.911 186.612Z"
    fill="#3F3F46" />
  <path fill-rule="evenodd" clip-rule="evenodd"
    d="M225.288 85.3621C223.896 84.1005 222.504 82.8388 221.112 81.5772C220.659 81.1661 220.278 80.2878 220.858 80.0914C221.458 81.2244 222.8 81.7659 224.074 81.9137C225.347 82.0614 226.644 81.9072 227.914 82.0836C229.118 82.2508 230.258 82.7087 231.4 83.1213C237.703 85.3972 244.408 86.3781 250.746 88.5543C251.118 88.682 251.543 88.8734 251.622 89.2584C251.711 89.6887 251.307 90.0547 250.922 90.2665C248.946 91.3534 246.275 90.9835 244.669 89.4004C243.895 88.6374 242.625 89.1689 241.579 89.4626C239.65 90.0039 237.599 89.5401 235.651 89.0754C233.589 88.5836 231.526 88.0918 229.464 87.6C228.745 87.4286 228.019 87.2546 227.359 86.9231C226.584 86.5341 225.931 85.9445 225.288 85.3621ZM248.53 89.8042C248.858 89.6562 248.485 89.1868 248.146 89.0659C244.816 87.8773 241.433 86.7151 237.913 86.3775C236.088 86.2024 234.285 85.7879 232.566 85.1479C230.262 84.2899 227.922 83.0027 225.499 83.4157C225.708 84.7332 226.979 85.6424 228.265 85.9981C229.551 86.3537 230.913 86.3092 232.223 86.5617C233.867 86.8786 235.383 87.6527 236.98 88.1561C238.576 88.6595 240.388 88.87 241.869 88.0886C242.918 87.535 244.214 87.8824 245.278 88.4078C246.341 88.9331 247.356 89.6368 248.53 89.8042Z"
    fill="#22C55E" />
  <path id="saturn" fill-rule="evenodd" clip-rule="evenodd"
    d="M265.933 48.2008C270.069 56.1864 268.827 65.7736 267.48 74.6656C275.285 78.6279 282.017 84.6792 286.787 92.0191C288.269 94.301 289.608 97.0673 288.757 99.6522C287.725 102.788 284.047 104.091 280.8 104.693C272.671 106.2 264.227 105.981 256.187 104.054C253.151 103.327 249.688 102.429 247.123 104.207C235.807 112.048 220.132 112.73 207.848 106.514C195.564 100.298 186.946 87.6556 184.937 74.0361C184.553 71.4355 182.233 69.638 180.168 68.0116C173.099 62.4448 167.007 55.6419 162.25 48.0044C160.263 44.8128 158.462 40.904 159.874 37.4193C161.505 33.3934 166.528 32.0674 170.868 31.8877C180.512 31.4884 190.26 34.1775 198.335 39.4647C203.89 32.5542 211.93 27.6855 220.628 25.9656C229.326 24.2457 238.614 25.6878 246.381 29.9641C250.239 32.0882 253.699 34.8646 257.001 37.7785C260.452 40.8236 263.816 44.1142 265.933 48.2008ZM272.789 94.2492C271.07 96.8899 267.513 97.5324 264.363 97.6166C254.795 97.8723 245.412 95.2428 236.202 92.6362C229.78 90.8186 223.328 88.99 217.262 86.2037C213.58 84.5121 210.066 82.4786 206.597 80.3844C194.196 72.8979 181.543 63.6336 176.96 49.892C176.065 47.2079 177.87 44.1619 180.424 42.9436C182.977 41.7252 186.011 41.9969 188.712 42.8377C190.115 43.2742 191.526 43.8631 192.992 43.7586C194.457 43.6541 195.991 42.5511 195.945 41.0829C195.898 39.5377 194.275 38.5885 192.85 37.9894C184.788 34.5998 175.918 32.67 167.256 33.8821C165.423 34.1387 163.475 34.6088 162.251 35.9984C160.035 38.5147 161.328 42.4469 162.936 45.389C169.706 57.7729 180.24 67.8062 192.018 75.5824C203.796 83.3585 216.838 89.0098 229.997 94.1124C245.931 100.291 262.923 105.808 279.83 103.321C281.521 103.072 283.245 102.727 284.693 101.819C286.141 100.911 287.273 99.3248 287.198 97.6174C287.146 96.4644 286.569 95.407 285.973 94.4193C281.38 86.8199 274.699 80.497 266.858 76.3296C266.477 77.7794 266.095 79.2293 265.714 80.6792C268.1 82.2382 270.55 83.8578 272.159 86.2107C273.768 88.5637 274.345 91.8604 272.789 94.2492ZM265.025 75.0338C265.47 74.6138 265.647 73.9906 265.793 73.3969C267.362 67.0142 267.469 60.2766 266.104 53.8472C263.593 54.4539 261.083 55.0607 258.573 55.6674C257.379 55.9561 256.171 56.2464 254.942 56.2436C253.451 56.2401 251.998 55.8054 250.525 55.5707C247.231 55.0459 243.869 55.5248 240.568 56.0036C239.292 56.1887 238.029 55.6405 236.9 55.0178C228.966 50.6422 223.803 42.1617 215.615 38.2813C214.742 37.8676 213.828 37.5015 213.092 36.8755C211.596 35.6033 211.048 33.4391 209.466 32.2756C210.691 37.2697 214.597 41.153 218.717 44.2289C222.838 47.3048 227.387 49.9004 230.864 53.6894C232.644 55.6304 235.35 56.4285 237.96 56.7833C240.57 57.1381 243.246 57.1401 245.776 57.874C247.702 58.4327 249.576 59.4176 251.578 59.3149C253.439 59.2195 255.106 58.1973 256.878 57.6225C259.471 56.7815 262.264 56.9071 264.987 57.0416C265.536 57.0687 266.237 57.2241 266.318 57.7686C266.414 58.4216 265.53 58.7209 264.87 58.7291C261.668 58.7691 258.116 58.0237 255.524 59.9021C253.519 61.3546 250.774 61.2483 248.376 60.6323C245.979 60.0162 243.683 58.9553 241.223 58.6789C239.476 58.4826 237.695 58.6896 235.96 58.4061C231.115 57.6144 227.766 53.3377 223.983 50.21C221.075 47.8067 217.724 45.9915 214.772 43.6432C211.82 41.2949 209.187 38.2178 208.536 34.5024C208.367 33.5405 206.908 33.8134 206.08 34.3319C204.052 35.6022 202.001 36.8916 200.352 38.6259C198.703 40.3603 197.473 42.6165 197.457 45.0095C197.433 48.337 200.043 51.491 203.316 52.0915C206.086 52.6 206.048 57.7959 208.863 57.9188C210.672 57.9979 211.613 60.0255 212.423 61.6453C213.233 63.265 215.083 64.9585 216.61 63.985C217.604 63.3515 218.868 64.0606 219.903 64.6249C220.937 65.1892 222.513 65.4655 223.055 64.4189C220.924 64.0548 219.771 61.0994 221.093 59.3887C222.09 58.0995 223.89 57.78 225.519 57.7384C227.428 57.6896 229.422 57.9173 231.035 58.9394C232.649 59.9614 233.77 61.9415 233.313 63.796C232.781 65.9484 233.186 68.3149 234.402 70.1687C235.384 69.5372 236.367 68.9057 237.349 68.2743C238.668 67.427 240.035 66.5605 241.581 66.308C243.128 66.0555 244.915 66.5808 245.672 67.9528C246.431 69.3267 245.959 71.0255 245.472 72.5174C248.07 71.5455 251.152 71.9935 253.366 73.6651C256.281 75.866 260.236 76.6212 263.756 75.6493C264.214 75.5229 264.68 75.3601 265.025 75.0338ZM250.761 35.1618C250.265 34.8791 249.641 34.6075 249.154 34.9053C247.419 35.967 245.193 35.7493 243.232 35.2045C241.272 34.6596 239.36 33.8193 237.327 33.7343C235.797 33.6703 234.279 34.0403 232.748 34.0408C229.11 34.0419 225.828 31.9972 222.773 30.0229C222.381 29.7695 221.969 29.4941 221.774 29.0702C221.578 28.6463 221.714 28.0354 222.159 27.8937C225.273 31.2567 230.035 33.0151 234.588 32.4826C235.838 32.3363 237.083 32.0281 238.339 32.1164C240.128 32.2422 241.752 33.1549 243.458 33.7084C245.164 34.262 247.243 34.3794 248.549 33.1496C238.203 25.2496 222.995 24.3915 211.826 31.0777C211.653 31.1812 211.455 31.3547 211.525 31.5436C212.661 34.5974 215.854 36.2549 218.601 38.0073C224.825 41.9776 229.772 47.6316 235.554 52.2206C237.318 53.6206 239.493 54.9923 241.674 54.4324C244.795 53.6313 248.095 53.5363 251.256 54.1567C252.646 54.4294 254.028 54.8403 255.445 54.8159C258.359 54.7657 261.059 52.8838 263.967 53.0814C264.813 53.1389 265.491 52.2666 265.533 51.4194C265.575 50.5723 265.163 49.7751 264.737 49.0413C261.407 43.2942 256.531 38.4523 250.761 35.1618ZM204.787 94.4781C207.382 96.0497 210.835 94.9312 213.673 96.001C215.051 96.52 216.27 97.5497 217.738 97.6489C219.03 97.736 220.287 97.0759 221.577 97.1746C222.803 97.2684 223.86 98.024 224.908 98.6683C229.069 101.228 234.104 102.335 238.956 101.759C240.231 101.607 241.398 102.414 242.621 102.808C243.843 103.202 245.592 102.857 245.761 101.583C238.788 99.5997 232.067 96.8327 225.363 94.0719C211.485 88.3566 197.397 82.519 185.687 73.1313C186.381 75.4065 187.075 77.6817 187.769 79.9569C188.634 82.7908 189.502 85.6364 190.769 88.315C195.78 98.9168 206.678 105.862 218.088 108.566C223.129 109.761 228.51 110.22 233.432 108.603C230.154 108.331 227.757 105.422 224.705 104.195C221.555 102.928 217.679 103.441 215.037 101.309C211.827 98.7183 206.216 99.6002 204.144 96.0331C203.756 95.366 204.127 94.0783 204.787 94.4781ZM197.753 59.8402C197.783 61.4947 198.718 63.1046 200.14 63.9509C200.818 64.3544 201.61 64.6057 202.148 65.1829C202.786 65.8669 202.926 66.9665 202.481 67.789C201.733 69.1717 199.838 69.3869 198.28 69.1776C197.423 69.0625 196.56 68.8653 195.815 68.4269C194.826 67.845 194.125 66.8918 193.344 66.0506C191.659 64.235 189.496 62.8673 187.133 62.1237C187.316 63.9262 188.777 65.2994 190.171 66.4569C196.236 71.4942 202.849 75.834 209.607 79.8932C211.815 81.2187 214.04 82.5164 216.337 83.6804C224.753 87.9463 233.968 90.3463 243.102 92.7159C246.404 93.5725 249.705 94.429 253.007 95.2856C253.463 95.4039 253.949 95.5217 254.397 95.3753C254.88 95.2174 255.214 94.7868 255.516 94.3775C257.674 91.4497 259.728 88.446 261.675 85.3739C261.769 85.2259 261.866 85.0594 261.836 84.887C261.795 84.6558 261.55 84.5285 261.335 84.4358C257.787 82.9096 254.239 81.3835 250.691 79.8573C250.054 79.5831 249.39 79.3037 248.696 79.3271C247.869 79.3551 247.126 79.8069 246.345 80.0817C241.484 81.7929 236.475 76.563 231.408 77.4997C229.738 77.8084 228.266 78.7658 226.658 79.3119C225.05 79.858 223.037 79.8851 221.904 78.6206C221.247 77.8883 221.026 76.8785 220.641 75.9737C220.256 75.069 219.54 74.1548 218.557 74.1147C218.075 74.0951 217.614 74.2929 217.141 74.384C215.274 74.7432 213.492 73.4194 212.305 71.934C211.119 70.4487 210.202 68.6907 208.658 67.5815C206.9 66.3189 204.535 66.0578 202.901 64.6395C201.243 63.2019 200.622 60.813 198.896 59.4585C198.596 59.2235 198.12 59.042 197.876 59.3334C197.761 59.4696 197.749 59.6624 197.753 59.8402ZM243.515 73.102C243.166 71.9825 244.473 70.9339 244.366 69.7659C244.235 68.3272 242.241 67.9776 240.85 68.3653C239.513 68.7377 238.264 69.4182 237.226 70.3388C236.029 71.3996 234.408 72.8726 233.129 71.9128C232.793 71.6605 232.582 71.2787 232.399 70.9001C231.242 68.4982 230.863 65.729 231.332 63.1045C231.565 61.8008 230.56 60.5313 229.343 60.0089C228.126 59.4864 226.75 59.5328 225.427 59.5881C224.588 59.6232 223.677 59.6853 223.044 60.2376C222.41 60.79 222.35 62.0194 223.125 62.3451C224.251 62.8187 224.879 64.2316 224.477 65.3851C223.17 66.6813 221.051 66.4961 219.232 66.2207C217.822 66.0073 216.412 65.7939 215.003 65.5806C213.974 65.4249 212.886 65.2425 212.1 64.5609C210.563 63.2281 210.583 60.352 208.653 59.7115C208.135 59.5395 207.565 59.5809 207.044 59.419C204.433 58.6089 204.855 53.7457 202.161 53.2819C197.892 52.5467 194.848 47.6769 196.058 43.5173C192.101 48.6418 189.007 54.4305 186.945 60.5673C189.7 61.1161 192.279 62.5161 194.241 64.5274C195.223 65.5348 196.1 66.7249 197.385 67.2982C198.67 67.8715 200.539 67.4609 200.891 66.0985C199.271 65.9281 197.937 64.7122 197.048 63.3461C196.438 62.4087 195.969 61.3286 196.013 60.2112C196.058 59.0938 196.719 57.9508 197.782 57.6025C199.196 57.1391 200.68 58.1869 201.525 59.411C202.371 60.6351 202.885 62.099 203.934 63.1538C204.995 64.2201 206.469 64.7368 207.812 65.4146C209.845 66.441 211.658 67.9006 213.095 69.6676C214.095 70.8976 215.085 72.3863 216.648 72.6518C218.079 72.8949 219.672 72.016 220.936 72.7295C222.815 73.7904 222.2 77.3759 224.268 77.9937C225.178 78.2655 226.111 77.7493 226.964 77.3336C230.944 75.3946 235.836 75.4466 239.774 77.4699C240.816 78.0053 241.837 78.6832 243.003 78.7937C244.884 78.972 246.588 77.6389 248.468 77.4472C250.638 77.226 252.626 78.525 254.537 79.5769C256.661 80.7466 258.922 81.6674 261.259 82.3144C261.669 82.428 262.112 82.5323 262.513 82.3905C263.007 82.216 263.303 81.7196 263.524 81.2448C264.13 79.944 264.479 78.5249 264.547 77.0918C260.513 77.7413 255.874 78.2287 252.816 75.5185C251.326 74.198 249.237 73.5824 247.269 73.8842C245.878 74.0975 243.935 74.4454 243.515 73.102ZM180.786 53.6037C182.048 55.6577 183.31 57.7117 184.572 59.7657C184.727 60.0167 184.989 60.3058 185.259 60.1873C185.418 60.1176 185.487 59.9343 185.541 59.7695C187.133 54.928 189.38 50.3022 192.201 46.0576C192.399 45.759 191.995 45.4297 191.662 45.2971C190.674 44.9034 189.683 44.509 188.658 44.222C186.655 43.6609 184.535 43.5205 182.476 43.8126C181.037 44.0167 179.46 44.5668 178.853 45.887C178.573 46.4941 178.543 47.1861 178.588 47.8529C178.654 48.8415 178.876 49.8196 179.244 50.7399C179.646 51.7482 180.217 52.6788 180.786 53.6037ZM270.72 94.5441C272.195 93.7153 272.666 91.7083 272.211 90.0785C271.755 88.4487 270.588 87.1242 269.402 85.9168C268.1 84.5912 266.733 83.33 265.306 82.1394C262.939 86.6953 260.241 91.0792 257.24 95.2453C257.049 95.5109 257.216 95.9114 257.496 96.0801C257.777 96.2488 258.124 96.2497 258.451 96.2429C262.018 96.1686 265.579 95.7748 269.076 95.0677C269.642 94.9532 270.216 94.8269 270.72 94.5441ZM210.68 97.5649C212.791 97.7407 214.447 99.3766 216.352 100.303C219.91 102.033 224.432 101.303 227.67 103.578C228.666 104.278 229.479 105.23 230.536 105.834C231.681 106.489 233.024 106.687 234.336 106.815C236.994 107.074 240.046 106.942 241.803 104.932C241.903 104.819 241.999 104.696 242.042 104.551C242.258 103.818 241.152 103.491 240.389 103.534C234.319 103.876 227.917 102.944 223.008 99.3593C221.722 98.4201 219.95 99.351 218.358 99.3856C216.716 99.4212 215.244 98.4692 213.733 97.8261C211.628 96.93 209.281 96.6089 207.012 96.9065C207.89 97.8376 209.405 97.4588 210.68 97.5649Z"
    fill="#22C55E" />
  <path fill-rule="evenodd" clip-rule="evenodd"
    d="M125.014 155.954C127.718 154.865 130.527 153.702 132.446 151.507C132.678 151.242 132.919 150.947 133.26 150.859C133.601 150.77 134.045 151.034 133.976 151.38C133.639 153.065 131.945 154.066 130.419 154.855C129.491 155.334 128.562 155.814 127.634 156.294C127.175 156.531 126.694 156.774 126.177 156.778C125.66 156.781 125.102 156.464 125.014 155.954Z"
    fill="#22C55E" />
  <path fill-rule="evenodd" clip-rule="evenodd"
    d="M82.6954 127.477C82.0146 125.819 81.3849 124.14 80.8076 122.443C80.6657 122.026 80.5269 121.608 80.3882 121.19C79.2312 117.702 78.0738 114.214 77.0484 110.686C76.9288 110.274 77.0528 109.602 77.4605 109.734C77.628 109.788 77.7109 109.971 77.7745 110.135C79.1152 113.594 80.4558 117.053 81.7964 120.513C82.6987 122.84 83.6162 125.261 83.4524 127.753C83.4401 127.94 83.1778 128.019 83.0137 127.928C82.8495 127.837 82.7667 127.651 82.6954 127.477Z"
    fill="#22C55E" />
  <path fill-rule="evenodd" clip-rule="evenodd"
    d="M134.061 142.994C134.202 143.59 134.059 144.516 133.456 144.407C131.638 137.845 129.912 131.257 128.277 124.647C128.222 124.424 128.168 124.186 128.248 123.971C128.328 123.756 128.601 123.6 128.793 123.725C128.889 123.788 128.939 123.9 128.982 124.006C130.406 127.48 131.273 131.152 132.133 134.807C132.776 137.536 133.419 140.265 134.061 142.994Z"
    fill="#22C55E" />
  <path fill-rule="evenodd" clip-rule="evenodd"
    d="M75.9345 76.011C75.6708 76.2124 75.4071 76.4137 75.1434 76.6151C69.3418 72.3497 62.3247 69.757 55.1435 69.2255C55.0434 68.9 55.0143 68.5529 55.0588 68.2153C61.5503 68.2649 68.0156 70.231 73.4358 73.8037C74.3693 74.419 75.2895 75.0978 75.9345 76.011Z"
    fill="#22C55E" />
  <path fill-rule="evenodd" clip-rule="evenodd"
    d="M95.0322 199.867C103.26 195.483 110.415 189.101 115.705 181.425C116.764 179.889 117.748 178.304 118.732 176.719C119.135 176.071 119.538 175.422 119.941 174.773C120.613 176.827 119.244 178.938 117.948 180.667C112.131 188.421 105.816 196.559 96.7276 199.929C96.165 200.138 95.451 200.296 95.0322 199.867Z"
    fill="#22C55E" />
  <path fill-rule="evenodd" clip-rule="evenodd"
    d="M134.118 98.2962C134.703 98.0641 135.363 98.3269 135.911 98.6366C137.099 99.3068 138.185 100.268 138.675 101.541C139.165 102.813 138.922 104.425 137.855 105.273C137.3 105.715 136.458 105.61 135.865 105.22C135.273 104.829 134.873 104.214 134.491 103.617C133.704 102.388 132.883 100.989 133.187 99.5627C133.3 99.0288 133.61 98.4974 134.118 98.2962Z"
    fill="#FACC15" />
  <path fill-rule="evenodd" clip-rule="evenodd"
    d="M26.2188 109.975C25.1632 109.736 24.246 108.954 23.8434 107.949C23.4409 106.945 23.5641 105.745 24.1627 104.844C24.9014 103.731 26.2282 103.16 27.5265 102.846C28.8475 102.527 30.2177 102.413 31.5733 102.508C32.0901 102.544 32.6272 102.619 33.0544 102.912C33.3844 103.138 33.6216 103.478 33.7983 103.837C34.3945 105.049 34.3331 106.56 33.6408 107.719C32.9484 108.878 31.6466 109.648 30.2975 109.697C28.9283 109.747 27.5551 110.277 26.2188 109.975ZM27.9561 107C28.9684 106.947 29.9774 106.831 30.9752 106.652C31.3806 106.579 31.8152 106.479 32.0846 106.167C32.354 105.856 32.3208 105.267 31.933 105.129C30.4493 104.598 28.7216 104.803 27.4036 105.667C27.0988 105.866 26.7828 106.188 26.8769 106.54C26.9868 106.951 27.5317 107.023 27.9561 107Z"
    fill="#22C55E" />
  <path fill-rule="evenodd" clip-rule="evenodd"
    d="M98.4824 78.5355C98.6538 78.5465 98.7244 78.7882 98.6387 78.9372C98.5653 79.0648 98.4284 79.1363 98.2901 79.1935L88.4307 83.0471C88.0369 83.201 87.3571 83.119 87.4784 82.714C87.5272 82.5512 87.7035 82.4684 87.8613 82.4053C91.3608 81.0067 94.9034 79.7159 98.4824 78.5355Z"
    fill="#22C55E" />
  <path fill-rule="evenodd" clip-rule="evenodd"
    d="M130.378 91.7997C129.188 91.859 128.02 92.2269 126.994 92.8305C126.173 93.3131 125.135 93.0694 124.219 92.8124C123.333 92.5641 122.447 92.3158 121.561 92.0674C121.505 91.7989 121.826 91.6207 122.088 91.5393C124.681 90.7327 127.398 90.168 130.102 90.4117C132.806 90.6555 135.513 91.7875 137.227 93.8929C135.072 92.8004 132.791 91.6795 130.378 91.7997Z"
    fill="#22C55E" />
  <path fill-rule="evenodd" clip-rule="evenodd"
    d="M119.847 98.53C119.954 100.622 119.082 102.743 117.535 104.155C117.131 104.524 116.618 104.863 116.077 104.778C115.531 104.691 115.13 104.169 115.031 103.625C114.931 103.081 115.075 102.521 115.265 102.001C115.856 100.388 116.911 98.9475 118.271 97.8984C118.616 97.6326 119.09 97.3854 119.462 97.6117C119.758 97.7917 119.83 98.1844 119.847 98.53Z"
    fill="#FACC15" />
  <path fill-rule="evenodd" clip-rule="evenodd"
    d="M131.792 113.084C131.202 113.242 130.477 113.18 130.113 112.689C129.83 112.306 129.851 111.773 129.989 111.318C130.192 110.647 130.649 110.031 131.293 109.757C131.938 109.483 132.768 109.617 133.208 110.162C133.613 110.661 133.619 111.414 133.308 111.976C132.996 112.539 132.413 112.918 131.792 113.084Z"
    fill="#FACC15" />
  <path fill-rule="evenodd" clip-rule="evenodd"
    d="M129.453 108.561C129.322 108.891 129.062 109.197 128.713 109.263C128.134 109.373 127.655 108.8 127.44 108.252C127.234 107.726 127.134 107.159 127.149 106.595C127.153 106.428 127.199 106.222 127.361 106.181C127.992 106.021 128.705 106.242 129.135 106.731C129.565 107.22 129.693 107.955 129.453 108.561Z"
    fill="#FACC15" />
  <path fill-rule="evenodd" clip-rule="evenodd"
    d="M121.448 111.299C121.832 111.742 122.169 112.262 122.219 112.846C122.268 113.43 121.949 114.076 121.386 114.238C120.837 114.396 120.272 114.07 119.819 113.72C119.305 113.322 118.811 112.849 118.599 112.234C118.386 111.62 118.537 110.839 119.091 110.498C119.862 110.024 120.856 110.615 121.448 111.299Z"
    fill="#FACC15" />
  <path fill-rule="evenodd" clip-rule="evenodd"
    d="M38.8099 163.452C38.2648 162.828 37.752 162.104 37.7037 161.277C37.6726 160.743 37.8407 160.215 38.0711 159.732C38.9874 157.812 40.9125 156.472 42.991 156.016C45.0694 155.56 47.2735 155.924 49.2248 156.773C49.9338 157.081 50.64 157.473 51.0913 158.101C51.797 159.082 51.7219 160.465 51.1937 161.553C50.6654 162.64 49.7548 163.488 48.8307 164.267C47.9794 164.985 47.0579 165.688 45.97 165.926C45.3847 166.054 44.7789 166.041 44.1799 166.027C43.5794 166.013 42.9743 165.999 42.3884 165.867C40.9606 165.545 39.7724 164.555 38.8099 163.452ZM42.7659 159.777C42.2702 159.301 41.4842 158.81 40.9735 159.27C40.5361 159.663 40.1974 160.166 39.9968 160.719C40.9929 160.753 41.9975 160.411 42.7659 159.777ZM44.2109 157.453C43.6059 157.599 42.9769 157.756 42.5016 158.158C42.8366 158.498 43.2234 158.82 43.6905 158.92C44.1576 159.02 44.7163 158.83 44.8987 158.389C45.0811 157.947 44.6754 157.342 44.2109 157.453ZM45.8656 161.585C45.8197 161.949 45.7753 162.327 45.8947 162.674C46.0141 163.02 46.3504 163.322 46.7136 163.273C47.2343 163.203 47.4625 162.522 47.9611 162.356C47.3221 161.965 46.6056 161.702 45.8656 161.585ZM48.2185 158.617C48.6225 158.741 49.0956 158.392 49.0974 157.97C48.0949 157.617 46.8636 158.166 46.4571 159.148C47.0722 159.274 47.7457 159.064 48.1797 158.61M44.7155 162.912C44.6664 162.789 44.5938 162.662 44.4698 162.617C44.0679 162.471 43.9648 163.218 43.5886 163.422C43.2338 163.614 43.2846 164.217 43.6371 164.413C43.9896 164.609 44.47 164.423 44.6795 164.078C44.8889 163.734 44.8658 163.286 44.7155 162.912ZM41.7576 161.986C41.3949 162.296 40.7335 162.154 40.4821 162.56C40.2623 162.914 40.621 163.41 41.0367 163.443C41.4523 163.477 41.831 163.19 42.0792 162.855C42.2153 162.671 42.3302 162.444 42.2785 162.221C42.2269 161.998 41.9314 161.837 41.7576 161.986ZM49.272 160.664C49.4059 160.53 49.5398 160.395 49.6737 160.26C49.3264 159.924 48.7659 160.002 48.2931 160.104C48.147 160.135 47.9909 160.172 47.8905 160.282C47.6571 160.539 47.9367 160.987 48.2804 161.036C48.6241 161.084 48.9487 160.884 49.2386 160.693L49.272 160.664Z"
    fill="#22C55E" />
  <path id="helmet" fill-rule="evenodd" clip-rule="evenodd"
    d="M119.555 86.452C118.75 85.8065 118.441 84.7458 117.966 83.8301C116.37 80.7493 112.691 79.2095 109.221 79.1865C105.751 79.1635 102.409 80.3874 99.1562 81.5948C93.9716 83.5191 88.787 85.4435 83.6023 87.3678C78.7701 89.1613 73.463 91.3828 71.3539 96.0858C69.3482 100.558 70.9378 105.741 72.5417 110.373C76.4052 121.529 80.2687 132.686 84.1322 143.843C84.6241 145.264 85.5293 146.972 87.027 146.842C98.4012 145.861 109.807 154.479 111.971 165.688C119.139 164.12 126.063 161.444 132.422 157.785C134.169 156.78 135.932 155.644 137.008 153.94C138.973 150.826 138.136 146.785 137.234 143.215C135.575 136.655 133.917 130.096 132.259 123.537C127.755 123.381 123.126 122.809 119.192 120.609C112.109 116.649 108.625 107.289 111.313 99.6317C114 91.9748 122.493 86.8541 130.532 87.963C138.57 89.0719 145.334 96.2295 146.076 104.31C146.818 112.391 141.533 120.619 133.906 123.39C135.286 128.558 136.666 133.725 138.046 138.893C139.03 142.578 140.022 146.33 139.888 150.142C139.677 156.151 136.71 161.681 133.668 166.868C124.539 182.431 113.049 198.027 96.1712 204.406C89.9828 206.745 83.3625 207.711 76.7715 208.282C73.3312 208.581 69.84 208.773 66.446 208.136C62.588 207.412 59.0073 205.645 55.6 203.696C29.0326 188.498 10.2272 160.442 6.26499 130.092C5.84757 126.895 5.58083 123.655 4.65324 120.567C3.80935 117.757 2.4329 115.126 1.64982 112.299C-0.0227551 106.261 1.24571 99.479 4.98777 94.4535C6.98246 91.7747 7.37686 88.2739 8.46939 85.1178C9.51491 82.0974 11.2502 79.3181 13.5048 77.0526C15.9764 74.569 19.0197 72.7336 22.1272 71.1149C38.0806 62.8049 56.6807 59.6745 74.4754 62.3045C92.2701 64.9346 109.169 73.3119 122.037 85.8816C121.896 86.9032 120.359 87.0975 119.555 86.452ZM95.6819 159.075C94.4591 157.602 93.2601 156.052 92.6539 154.237C92.0477 152.422 92.1285 150.272 93.3109 148.768C92.6974 148.104 91.611 147.94 90.8293 148.394C90.0475 148.847 89.6498 149.871 89.9208 150.733C90.4233 152.332 89.358 154.243 87.7341 154.656C88.7117 152.728 89.0311 150.473 88.6273 148.349C88.5984 148.197 88.5571 148.032 88.4316 147.941C88.1654 147.749 87.8194 148.046 87.6509 148.327C86.6455 150.006 86.6964 152.152 87.3265 154.005C87.9566 155.857 89.1038 157.482 90.236 159.078C93.0801 158.152 96.5102 160.063 97.2195 162.969C97.8341 165.486 100.348 167.219 102.918 167.552C105.488 167.884 108.077 167.055 110.404 165.913C106.243 165.353 101.856 164.699 98.5793 162.074C97.4924 161.204 96.5717 160.146 95.6819 159.075ZM10.4171 109.836C8.28959 104.924 7.18596 99.6221 6.56185 94.3054C3.14648 99.201 1.8019 105.494 2.91826 111.357C4.03463 117.221 7.59736 122.58 12.5727 125.878C14.1363 126.914 14.416 129.039 14.766 130.883C15.6154 135.356 17.6967 139.485 19.7544 143.547C23.7305 151.396 27.7556 159.319 33.3894 166.077C36.8629 170.244 41.6399 174.185 47.0402 173.674C52.8727 173.121 57.082 167.316 57.8419 161.507C58.6018 155.698 56.7416 149.901 54.9061 144.337C52.8972 138.248 50.8884 132.159 48.8796 126.07C48.64 125.344 48.4345 124.447 48.9637 123.895C52.2327 120.486 53.1148 115.323 52.3747 110.658C51.6345 105.993 49.4819 101.688 47.335 97.4813C46.5795 97.7341 46.6112 98.7941 46.7269 99.5824C47.5929 105.48 44.5044 111.554 39.7042 115.089C34.9041 118.623 28.6554 119.818 22.7201 119.264C20.4705 119.054 18.1922 118.589 16.2574 117.423C13.4792 115.747 11.7065 112.813 10.4171 109.836ZM73.4586 183.722C70.9391 181.949 68.9533 179.527 67.1248 177.047C64.1855 173.061 61.5641 168.84 59.2936 164.438C58.146 167.689 56.0915 170.614 53.423 172.796C50.3659 175.296 45.8685 175.437 42.1847 174.014C38.5009 172.59 35.4962 169.833 32.8282 166.921C23.2782 156.498 16.9369 143.416 13.1507 129.796C12.764 128.405 12.3349 126.902 11.1868 126.027C10.0387 125.151 7.95071 125.456 7.65698 126.87C7.5941 127.173 7.61986 127.486 7.6459 127.794C8.09566 133.114 8.55275 138.474 10.0345 143.604C10.7476 146.072 11.6926 148.467 12.6574 150.848C16.1968 159.585 20.0733 168.292 25.7327 175.831C33.2204 185.804 43.4762 193.282 53.572 200.604C57.3418 203.338 61.8495 206.218 66.3242 204.928C68.1441 204.403 69.7031 203.23 71.1261 201.98C76.0171 197.684 79.8391 192.18 82.1561 186.097C79.1122 186.573 75.9782 185.495 73.4586 183.722ZM50.3773 79.0464C46.0587 75.7838 41.3338 72.9071 36.0947 71.5481C30.8556 70.1892 25.0239 70.4823 20.3675 73.2414C18.765 74.191 17.3328 75.4078 16.0281 76.7373C11.6008 81.2488 8.56653 87.3116 8.47154 93.6318C8.42135 96.9716 9.17292 100.269 10.0317 103.497C10.8592 106.608 11.8166 109.747 13.63 112.406C15.4434 115.066 18.2549 117.215 21.4606 117.506C26.4906 117.961 31.7278 117.336 36.1746 114.941C40.6214 112.546 44.1714 108.221 44.8932 103.222C45.4206 99.5698 44.4586 95.8727 44.4725 92.1827C44.4793 90.3908 44.718 88.5999 45.1807 86.8689C45.6008 85.2977 46.2338 83.7309 47.3776 82.5746C48.5214 81.4184 50.2633 80.7485 51.818 81.2262C51.8978 80.3181 51.1046 79.5959 50.3773 79.0464ZM118.844 165.099C113.389 166.788 107.934 168.477 102.479 170.166C98.7296 171.327 94.9227 172.498 90.999 172.608C87.0753 172.718 82.9509 171.635 80.1838 168.851C81.6835 172.487 84.2712 175.666 87.5271 177.872C88.3543 178.432 88.0304 179.704 87.6175 180.614C85.2754 185.776 82.9141 190.972 79.6589 195.612C76.4037 200.253 72.1643 204.356 66.9474 206.572C68.1816 207.089 69.4965 207.412 70.8295 207.527C72.7255 207.691 74.6299 207.435 76.5157 207.179C84.7863 206.058 93.2457 204.88 100.652 201.031C107.186 197.635 112.514 192.357 117.73 187.158C122.014 182.888 126.479 178.301 127.894 172.421C129.28 166.662 135.77 162.943 136.386 157.053C131.391 161.176 125.031 163.183 118.844 165.099ZM53.2509 105.926C54.7013 110.194 55.1107 114.973 53.4634 119.169C52.5216 121.567 50.9151 123.815 50.8776 126.392C50.8601 127.597 51.1949 128.777 51.5532 129.928C54.6264 139.796 59.7067 149.32 59.8359 159.655C59.8664 162.096 61.0458 164.362 62.2798 166.468C64.6433 170.502 67.3176 174.354 70.2711 177.979C72.6735 180.927 75.4932 183.867 79.1933 184.746C80.1416 184.972 81.17 185.045 82.0657 184.661C83.6845 183.966 84.3529 182.072 84.848 180.381C85.0963 179.533 85.2983 178.489 84.6645 177.873C80.0506 173.391 76.6335 167.687 74.8574 161.505C74.38 159.843 74.01 158.125 73.1737 156.612C72.6755 155.71 72.0234 154.903 71.4767 154.03C70.1017 151.834 69.4304 149.283 68.738 146.787C66.1151 137.329 62.925 128.029 59.1905 118.953C58.086 116.268 57.7398 113.343 57.4043 110.46C57.2919 109.494 57.1795 108.529 57.0672 107.563C56.605 103.592 56.1684 99.4181 57.6941 95.7226C59.0426 92.456 57.7076 88.6908 55.8259 85.6995C54.7797 84.0363 53.2343 82.3171 51.2723 82.4235C49.2193 82.5347 47.8572 84.5787 47.0908 86.4866C46.1226 88.8966 45.5958 91.7854 46.9787 93.9838C49.3789 97.799 51.8004 101.659 53.2509 105.926ZM51.679 78.2492C55.1551 81.1518 58.1888 84.7872 59.5003 89.1218C59.7894 90.0771 60.6429 91.3316 61.447 90.7403C65.7206 87.5984 70.7336 85.6507 75.6812 83.7383C77.7971 82.9204 79.913 82.1026 82.0289 81.2847C89.0038 78.5887 96.0762 75.8684 103.509 75.0523C99.0472 71.2898 93.6589 68.7698 88.1305 66.8982C73.8938 62.0785 58.2883 61.3793 43.6776 64.9065C42.2835 65.2431 40.8964 65.6178 39.5501 66.1119C36.6161 67.1889 33.8623 68.8359 30.7859 69.387C38.4178 70.2037 45.7874 73.3296 51.679 78.2492ZM65.2889 121.804C67.2877 122.695 70.1926 120.051 71.4977 121.808C69.1304 122.812 66.6759 123.611 64.1709 124.193C63.6576 124.312 63.6582 125.039 63.7875 125.55C64.775 129.45 66.1993 133.238 68.0253 136.822C69.9437 135.694 72.5229 136.35 74.1871 137.828C75.8513 139.306 76.7795 141.43 77.5244 143.528C78.1653 145.333 78.7083 147.172 79.1502 149.036C79.8445 151.965 79.9791 155.695 77.4252 157.288C76.4936 157.868 76.9104 159.294 77.4325 160.26C78.659 162.529 79.9138 164.824 81.702 166.683C86.4484 171.616 94.884 172.414 100.472 168.459C95.9478 167.397 91.8466 164.627 89.1722 160.826C87.3264 158.203 86.1707 155.169 85.0486 152.164C80.1571 139.067 75.5478 125.864 71.2251 112.568C70.1786 109.349 69.1413 106.087 68.9011 102.711C68.6608 99.3345 69.2901 95.7836 71.3061 93.0647C73.8273 89.6642 78.0491 88.0672 82.0346 86.6404C90.9534 83.4476 99.8722 80.2547 108.791 77.0618C103.989 75.1129 98.5628 76.7868 93.6603 78.4663C84.2815 81.6792 74.8754 84.9032 65.9566 89.232C64.3622 90.0058 62.7594 90.832 61.48 92.0585C57.6067 95.7715 57.7252 101.978 58.8796 107.218C58.9404 107.494 59.0259 107.801 59.2725 107.938C59.4778 108.053 59.7311 108.012 59.9621 107.968C61.8787 107.604 63.7954 107.239 65.712 106.875C67.5925 106.517 69.0527 108.477 69.7911 110.244C70.8379 112.747 71.4927 115.414 71.7244 118.118C71.7739 118.696 71.7795 119.347 71.3803 119.768C70.9811 120.188 70.0608 120.019 70.0729 119.439C70.1086 117.728 69.9507 116.013 69.6032 114.337C69.2016 112.4 68.473 110.409 66.9223 109.181C65.3716 107.953 62.816 107.839 61.5849 109.387C64.7777 112.563 66.2202 117.399 65.2889 121.804ZM135.716 117.505C135.892 114.93 137.784 112.559 140.255 111.816C141.74 111.37 142.774 109.944 143.143 108.438C143.511 106.932 143.318 105.348 143.033 103.823C142.123 98.9571 140.019 93.9347 135.784 91.3702C131.192 88.5897 125.274 89.3869 120.214 91.1778C118.008 91.9584 115.716 93.036 114.557 95.0687C113.845 96.319 113.649 97.7882 113.467 99.2157C113.094 102.135 112.721 105.082 112.99 108.012C113.259 110.943 114.228 113.896 116.227 116.055C117.62 117.559 119.754 118.656 121.702 118.02C123.229 117.522 124.63 118.942 126.076 119.641C128.049 120.596 130.379 120.201 132.532 119.785C133.917 119.517 135.62 118.912 135.716 117.505ZM77.0337 148.666C76.6734 147.496 76.3131 146.327 75.9528 145.157C75.1897 142.681 74.3446 140.073 72.4027 138.357C71.6275 137.672 70.4543 137.16 69.59 137.729C68.7122 138.306 68.7335 139.582 68.8912 140.62C69.5147 144.728 70.7231 148.747 72.4686 152.517C73.0553 153.785 73.7244 155.054 74.7613 155.989C75.0185 156.222 75.3115 156.438 75.6535 156.494C76.3825 156.614 77.0216 155.976 77.3492 155.314C78.3581 153.273 77.7039 150.841 77.0337 148.666ZM108.071 160.966C104.699 160.541 101.543 158.618 99.6193 155.816C98.8988 154.766 98.3391 153.58 98.1861 152.316C98.0957 151.569 98.142 150.783 97.8236 150.101C97.5052 149.42 96.6216 148.916 95.9924 149.328C95.9798 151.378 96.0031 153.558 97.1094 155.284C97.4906 155.878 97.985 156.39 98.4764 156.897C100.018 158.487 101.578 160.083 103.408 161.33C105.238 162.577 107.377 163.466 109.591 163.474C109.48 162.42 109.123 161.098 108.071 160.966ZM94.5163 148.746C93.7921 149.381 93.6601 150.453 93.7 151.416C93.8348 154.673 95.4035 157.796 97.7485 160.061C100.093 162.325 103.169 163.762 106.367 164.396C107.151 164.552 107.996 164.655 108.723 164.322C106.561 164.03 104.471 163.222 102.674 161.984C101.993 161.515 101.354 160.985 100.72 160.454C99.0421 159.049 97.3565 157.595 96.1852 155.747C94.8771 153.683 94.2799 151.178 94.5163 148.746ZM63.61 119.628C63.5136 116.451 62.3515 113.315 60.3541 110.843C59.2874 111.832 59.513 113.546 59.8227 114.968C60.266 117.002 60.7749 119.159 62.2619 120.616C62.419 120.77 62.6013 120.921 62.8204 120.942C63.3993 120.997 63.6276 120.209 63.61 119.628ZM100.891 155.89C102.538 157.952 104.92 159.414 107.504 159.95C107.661 159.982 107.849 160.003 107.961 159.888C108.049 159.799 108.056 159.658 108.042 159.533C107.95 158.708 107.202 158.098 106.425 157.804C105.648 157.51 104.802 157.437 104.02 157.156C102.125 156.476 100.787 154.484 100.873 152.473C100.911 151.594 100.237 150.74 99.3737 150.572C98.8706 152.419 99.697 154.394 100.891 155.89ZM94.2183 160.532C93.2846 160.113 92.2083 160.141 91.2441 159.798C90.876 159.667 90.5237 160.165 90.6638 160.529C90.8039 160.894 91.2294 161.07 91.6198 161.086C92.0101 161.102 92.3968 161 92.7875 160.998C94.1856 160.992 95.3673 162.517 95.0116 163.869C94.8749 164.388 95.4532 164.943 95.9664 164.786C96.5769 163.209 95.7612 161.224 94.2183 160.532ZM104.656 154.728C103.834 153.918 103.006 153.102 102.042 152.469C101.791 154.663 103.861 156.818 106.064 156.654C106.266 156.442 106.051 156.104 105.842 155.898C105.447 155.508 105.051 155.118 104.656 154.728ZM93.1938 162.824C93.4073 163.147 94.0639 162.972 93.9881 162.592C93.5155 162.054 92.8129 161.725 92.0969 161.706C92.1932 162.24 92.6216 162.699 93.1474 162.832M86.3638 148.609C86.342 148.339 86.0264 148.137 85.7716 148.229C85.6463 148.621 85.7462 149.076 86.0238 149.378C86.3803 149.382 86.6181 148.882 86.3896 148.608M78.1111 165.389C78.1107 165.792 78.3355 166.187 78.6816 166.393C78.8904 165.991 78.5501 165.425 78.0972 165.42"
    fill="#22C55E" />
  <path fill-rule="evenodd" clip-rule="evenodd"
    d="M87.3306 89.7257C87.789 89.4603 88.2411 90.263 87.936 90.6961C87.6309 91.1291 87.0358 91.2091 86.513 91.294C83.194 91.833 80.3323 94.0566 78.3417 96.7665C77.2988 98.1862 76.4269 99.8913 76.6593 101.638C76.7855 102.586 77.1525 103.758 76.3959 104.343C75.5142 103.404 75.0044 102.125 74.9986 100.836C74.9884 98.5637 76.4482 96.5684 77.9519 94.8642C79.6793 92.9063 81.768 90.9749 84.3641 90.6958C85.4061 90.5837 86.4238 90.2509 87.3306 89.7257Z"
    fill="#22C55E" />
  <path fill-rule="evenodd" clip-rule="evenodd"
    d="M333.396 104.246C334.446 103.414 335.496 102.581 336.546 101.749C336.847 101.51 337.172 101.261 337.555 101.227C338.117 101.178 338.6 101.6 339 101.999C340.379 103.374 341.689 104.819 342.922 106.326C343.222 106.693 342.844 107.216 342.49 107.532C341.326 108.571 340.161 109.611 338.997 110.65C338.702 110.913 338.386 111.187 337.998 111.256C337.394 111.364 336.832 110.955 336.355 110.569C335.346 109.752 334.336 108.934 333.327 108.117C332.721 107.627 332.063 107.036 332.041 106.257C332.017 105.417 332.738 104.768 333.396 104.246ZM338.677 104.376C338.375 104.039 338.023 103.677 337.571 103.656C337.22 103.639 336.898 103.836 336.602 104.026C336.073 104.366 335.544 104.705 335.015 105.044C334.808 105.177 334.591 105.319 334.475 105.537C334.177 106.091 334.666 106.726 335.118 107.164C335.781 107.805 336.445 108.447 337.108 109.088C337.311 109.285 337.554 109.497 337.836 109.469C338.035 109.45 338.2 109.313 338.349 109.179C338.916 108.668 339.436 108.106 339.901 107.5C340.23 107.071 340.525 106.438 340.165 106.035C339.669 105.482 339.173 104.929 338.677 104.376Z"
    fill="#FACC15" />
  <path id="spaceship" fill-rule="evenodd" clip-rule="evenodd"
    d="M329.263 117.127C328.986 116.44 327.817 116.759 327.595 117.465C327.373 118.172 327.731 118.913 328.035 119.589C331.12 126.45 328.664 135.343 322.495 139.648C320.922 138.686 320.288 136.562 318.627 135.762C317.862 135.393 316.983 135.363 316.133 135.339C313.608 135.27 311.084 135.201 308.559 135.132C307.637 135.107 306.528 135.182 306.081 135.988C305.106 137.745 302.499 138.445 300.92 137.203C299.342 135.961 299.612 132.991 301.482 132.258C301.923 132.084 302.425 132.023 302.789 131.72C303.116 131.447 303.274 131.027 303.419 130.627C304.399 127.913 305.378 125.2 306.358 122.487C306.543 121.975 306.73 121.449 306.717 120.906C306.69 119.798 305.853 118.888 304.995 118.187C304.137 117.487 303.169 116.836 302.684 115.84C302.2 114.843 302.484 113.368 303.545 113.048C309.109 111.37 315.364 110.306 320.545 112.94C321.431 113.391 322.316 113.957 323.31 113.985C324.304 114.013 325.404 113.199 325.223 112.221C324.968 110.845 322.55 110.265 322.98 108.933C323.073 108.646 323.295 108.422 323.51 108.21C325.708 106.038 327.905 103.866 330.103 101.694C330.331 100.462 328.539 99.7887 327.385 100.277C326.231 100.765 325.4 101.839 324.24 102.315C321.896 103.277 319.386 101.498 317.531 99.7723C310.888 93.597 304.997 86.6142 300.029 79.0268C299.801 78.6786 299.566 78.2958 299.596 77.8807C299.634 77.3476 300.089 76.953 300.509 76.6217C304.163 73.7362 307.817 70.8507 311.471 67.9652C312.353 67.2682 313.735 66.6025 314.462 67.4608C321.19 75.4076 327.919 83.3543 334.648 91.301C334.969 91.68 335.301 92.0811 335.4 92.5675C335.605 93.5675 334.771 94.4716 333.927 95.0447C333.082 95.6178 332.092 96.1342 331.705 97.0787C331.318 98.0232 332.162 99.4157 333.106 99.0287C337.942 95.5555 342.996 91.9873 348.859 90.9566C349.969 90.7615 351.175 90.676 352.162 91.2182C354.359 92.4248 354.05 95.6605 353.215 98.024C351.691 102.336 349.432 106.388 346.565 109.951C345.993 110.661 345.359 111.514 345.6 112.393C345.941 113.635 347.666 113.787 348.9 113.419C350.134 113.051 351.486 112.431 352.635 113.013C353.143 113.27 353.514 113.729 353.87 114.174C359.876 121.694 365.882 129.215 371.888 136.735C367.738 139.998 363.515 143.167 359.221 146.238C358.796 146.541 358.323 146.858 357.803 146.815C357.188 146.764 356.737 146.234 356.36 145.745C350.6 138.293 344.84 130.842 339.08 123.39C338.343 122.437 339.037 121.012 339.986 120.269C340.934 119.526 342.14 119.08 342.872 118.123C343.604 117.165 343.409 115.38 342.218 115.199C341.541 115.096 340.918 115.568 340.429 116.047C339.062 117.386 337.93 119.064 336.194 119.869C333.672 121.038 330.302 119.704 329.263 117.127ZM323.485 137.248C327 133.195 329.204 127.547 327.668 122.408C326.382 118.105 322.593 114.81 318.304 113.479C314.016 112.147 309.315 112.608 305.074 114.085C304.692 114.217 304.247 114.444 304.232 114.848C304.222 115.096 304.389 115.313 304.547 115.505C310.493 122.744 316.438 129.983 322.384 137.222C322.531 137.4 322.708 137.594 322.939 137.595C323.162 137.597 323.339 137.417 323.485 137.248ZM351.018 97.2943C348.767 97.0899 346.975 94.6965 347.412 92.4787C338.768 96.3545 331 102.171 324.848 109.375C327.241 112.586 329.926 115.578 332.859 118.303C333.162 118.584 333.498 118.877 333.909 118.917C334.355 118.961 334.767 118.698 335.134 118.441C342.181 113.507 347.842 106.616 351.315 98.7465C351.55 98.2144 351.597 97.3469 351.018 97.2943ZM319.385 90.7795C319.868 90.3816 320.397 89.8837 320.356 89.259C320.325 88.7981 319.986 88.4249 319.665 88.0922C318.237 86.6088 316.808 85.1253 315.38 83.6418C314.974 83.2201 314.302 83.1516 313.742 83.3202C313.181 83.4889 312.704 83.854 312.24 84.212C311.882 84.4888 311.511 85.0415 311.868 85.3197C313.799 86.8226 315.532 88.5789 317.009 90.5293C317.278 90.8847 317.581 91.274 318.019 91.3558C318.522 91.4496 318.99 91.1043 319.385 90.7795ZM324.552 99.6014C325.123 99.7184 325.663 99.3322 326.118 98.9684C326.506 98.6577 326.932 98.2704 326.912 97.7733C326.898 97.4368 326.679 97.1486 326.469 96.8853C325.028 95.0798 323.587 93.2742 322.147 91.4687C322.047 91.3436 321.935 91.2105 321.778 91.1777C321.622 91.1448 321.465 91.2218 321.325 91.2998C320.746 91.6227 320.201 92.0049 319.7 92.4386C319.497 92.615 319.29 92.8186 319.24 93.0832C319.181 93.3915 319.351 93.6926 319.518 93.9579C320.685 95.8066 322.078 97.5126 323.656 99.0256C323.916 99.2749 324.199 99.529 324.552 99.6014ZM304.503 131.566C304.469 131.652 304.435 131.741 304.437 131.833C304.441 132.097 304.744 132.275 305.006 132.247C305.269 132.22 305.493 132.053 305.702 131.893C307.563 130.463 309.423 129.033 311.284 127.604C311.574 127.381 311.893 127.103 311.891 126.737C311.89 126.45 311.69 126.209 311.5 125.994C310.683 125.068 309.865 124.142 309.048 123.215C308.92 123.071 308.782 122.919 308.597 122.862C308.093 122.707 307.704 123.304 307.513 123.797C306.509 126.387 305.506 128.976 304.503 131.566ZM313.897 129.224C313.785 129.093 313.666 128.956 313.505 128.893C313.274 128.803 313.015 128.883 312.782 128.97C310.284 129.898 308.043 131.508 306.366 133.579C306.747 133.79 307.206 133.787 307.642 133.778C310.607 133.721 313.572 133.663 316.536 133.606C316.862 133.6 317.312 133.442 317.228 133.128C316.118 131.826 315.007 130.525 313.897 129.224ZM305.982 74.8645C305.781 75.0653 305.566 75.2967 305.562 75.581C305.559 75.7727 305.655 75.9503 305.748 76.118C306.787 77.9867 307.826 79.8554 308.864 81.724C309.089 82.1275 309.323 82.5427 309.689 82.8234C310.056 83.1041 310.593 83.2162 310.98 82.965C311.519 82.6157 312.057 82.2664 312.596 81.917C312.994 81.6591 313.415 81.0775 313.03 80.8005C310.804 79.1983 308.99 77.0279 307.809 74.5526C307.652 74.2235 307.207 74.1207 306.86 74.2308C306.512 74.3409 306.24 74.6071 305.982 74.8645ZM315.789 93.7301C316.236 93.2876 316.257 92.5469 316.01 91.9691C315.763 91.3913 315.299 90.9384 314.847 90.5017C313.612 89.3088 312.377 88.1159 311.142 86.9229C310.798 86.5904 310.441 86.2498 309.996 86.0748C309.55 85.8998 308.989 85.9301 308.657 86.2757C308.042 86.9183 308.616 87.9597 309.19 88.6403C310.301 89.9593 311.412 91.2783 312.523 92.5973C312.943 93.0959 313.38 93.6083 313.965 93.8965C314.55 94.1846 315.326 94.189 315.789 93.7301ZM318.038 77.9897C318.898 77.9754 319.45 76.9523 319.305 76.1038C319.161 75.2554 318.553 74.5713 317.971 73.9375C316.774 72.6347 315.577 71.3319 314.38 70.0291C313.989 69.6036 313.471 69.1375 312.913 69.2881C312.422 69.4208 312.171 70.0076 312.239 70.5119C312.307 71.0161 312.61 71.4534 312.903 71.869C314.052 73.4953 315.201 75.1216 316.35 76.7479C316.77 77.343 317.309 78.0018 318.038 77.9897ZM340.859 122.6C340.826 122.798 340.942 122.988 341.053 123.155C342.188 124.866 343.322 126.576 344.456 128.287C344.795 128.797 345.452 129.074 346.054 128.959C346.655 128.844 347.165 128.344 347.291 127.745C347.473 126.88 346.917 126.051 346.39 125.342C345.443 124.068 344.496 122.795 343.549 121.521C343.254 121.125 342.653 121.073 342.199 121.269C341.746 121.465 341.406 121.85 341.081 122.222C340.984 122.334 340.883 122.454 340.859 122.6ZM350.267 126.287C350.596 126.062 350.943 125.815 351.087 125.444C351.332 124.816 350.907 124.143 350.502 123.604C349.548 122.336 348.586 121.074 347.614 119.819C347.217 119.305 346.763 118.757 346.125 118.63C345.564 118.518 344.946 118.803 344.666 119.303C344.386 119.802 344.466 120.478 344.855 120.898C346.346 122.513 347.586 124.36 348.514 126.353C348.797 126.961 349.714 126.666 350.267 126.287ZM301.657 78.5757C301.766 79.0881 302.116 79.5105 302.454 79.9105C303.82 81.5242 305.186 83.138 306.551 84.7518C306.658 84.8773 306.766 85.0046 306.902 85.0963C307.231 85.3168 307.708 85.2807 308 85.0135C308.292 84.7462 308.369 84.2736 308.178 83.9272C306.991 81.7754 305.803 79.6235 304.616 77.4716C304.25 76.8083 303.37 76.4824 302.66 76.7473C301.95 77.0121 301.499 77.8348 301.657 78.5757ZM356.824 136.299C356.624 136.52 356.412 136.774 356.419 137.072C356.425 137.326 356.591 137.545 356.749 137.745C357.859 139.144 358.974 140.539 360.094 141.93C360.28 142.16 360.476 142.399 360.745 142.522C361.399 142.821 362.126 142.332 362.678 141.871C362.922 141.667 363.188 141.411 363.158 141.095C363.141 140.909 363.02 140.751 362.905 140.604C361.613 138.963 360.321 137.322 359.03 135.682C358.759 135.338 358.23 135.296 357.827 135.467C357.424 135.639 357.117 135.974 356.824 136.299ZM309.71 74.1789C310.545 76.4471 312.078 78.5635 314.278 79.5655C314.819 79.812 315.603 79.9113 315.879 79.3845C316.158 78.8527 315.63 78.2761 315.192 77.866C313.448 76.2359 312.41 74.0093 311.412 71.8411C311.1 71.1625 309.967 71.3518 309.612 72.0094C309.258 72.667 309.452 73.478 309.71 74.1789ZM353.503 128.929C353.147 128.442 352.772 127.939 352.238 127.658C351.705 127.377 350.964 127.39 350.577 127.853C349.962 128.59 350.634 129.668 351.257 130.397C352.462 131.808 353.559 133.312 354.534 134.891C354.912 135.504 355.854 135.092 356.409 134.633C356.699 134.394 357.019 134.071 356.934 133.705C356.903 133.572 356.82 133.458 356.74 133.347C355.661 131.875 354.582 130.402 353.503 128.929ZM350.564 115.318C350.52 115.859 350.829 116.359 351.127 116.814C352.368 118.711 353.618 120.619 355.164 122.276C356.089 122.217 356.62 121.086 356.431 120.179C356.242 119.271 355.582 118.549 354.99 117.837C354.198 116.884 353.485 115.865 352.861 114.795C352.598 114.345 352.029 114.098 351.52 114.214C351.012 114.329 350.606 114.798 350.564 115.318ZM352.027 137.283C352.431 137.562 353.03 137.512 353.383 137.169C353.765 136.798 353.817 136.183 353.651 135.677C353.485 135.17 353.138 134.747 352.799 134.335C351.817 133.147 350.836 131.958 349.855 130.769C349.488 130.326 349.098 129.864 348.562 129.656C348.026 129.448 347.303 129.6 347.074 130.127C346.833 130.684 347.229 131.296 347.604 131.772C348.93 133.455 350.255 135.138 351.58 136.821C351.714 136.99 351.849 137.161 352.027 137.283ZM363.572 128.991C363.501 128.715 363.307 128.489 363.119 128.275C361.732 126.691 360.345 125.107 358.958 123.523C358.846 123.396 358.725 123.262 358.562 123.214C358.401 123.167 358.229 123.212 358.067 123.257C357.676 123.366 357.265 123.487 356.982 123.779C356.7 124.071 356.613 124.595 356.911 124.871C358.039 125.916 359.047 127.09 359.909 128.363C360.411 129.103 360.926 129.929 361.769 130.229C362.612 130.528 363.795 129.858 363.572 128.991ZM323.926 89.3611C323.557 89.8564 323.8 90.5612 324.101 91.1008C325.002 92.7167 326.303 94.0659 327.59 95.3951C327.921 95.7364 328.267 96.0882 328.712 96.2527C329.158 96.4172 329.733 96.3345 329.994 95.9372C330.352 95.3908 329.943 94.681 329.546 94.1618C328.546 92.8527 327.546 91.5436 326.547 90.2345C326.22 89.8072 325.876 89.3653 325.394 89.1283C324.911 88.8914 324.248 88.93 323.926 89.3611ZM366.696 136.991C367.136 137.533 367.802 138.135 368.435 137.841C368.986 137.585 369.208 136.733 369.816 136.73C368.749 135.356 367.683 133.983 366.616 132.609C366.187 132.055 365.725 131.477 365.071 131.224C364.418 130.971 363.525 131.198 363.307 131.864C363.105 132.478 363.539 133.104 363.946 133.606C364.863 134.734 365.779 135.863 366.696 136.991ZM326.744 85.1856C325.672 83.5078 324.463 81.9175 323.133 80.4358C322.783 80.0461 322.425 79.6639 322.067 79.2817C321.774 78.9691 321.46 78.643 321.047 78.528C320.552 78.3899 319.977 78.6217 319.717 79.065C319.456 79.5083 319.533 80.1228 319.894 80.4886C321.306 81.9174 322.717 83.3461 324.129 84.7748C324.499 85.1499 324.892 85.5386 325.396 85.6927C325.9 85.8468 326.547 85.6747 326.744 85.1856ZM333.315 93.1564C333.445 93.0533 333.586 92.932 333.603 92.7666C333.622 92.5921 333.496 92.4393 333.378 92.3094C331.844 90.6214 330.311 88.9333 328.777 87.2452C328.473 86.9105 328.081 86.5442 327.637 86.6343C327.207 86.7216 326.973 87.2293 327.032 87.664C327.09 88.0988 327.359 88.4721 327.619 88.8253C328.254 89.6876 328.889 90.5499 329.525 91.4123C330.271 92.4248 331.051 93.4684 332.152 94.0767C332.54 93.7699 332.927 93.4632 333.315 93.1564ZM356.012 126.25C355.639 125.84 355.145 125.39 354.609 125.53C354.126 125.657 353.883 126.238 353.961 126.731C354.038 127.224 354.347 127.644 354.648 128.043C355.511 129.189 356.374 130.335 357.237 131.481C357.686 132.078 358.319 132.746 359.045 132.567C359.686 132.408 359.99 131.611 359.845 130.966C359.7 130.321 359.239 129.801 358.795 129.312C357.867 128.291 356.94 127.271 356.012 126.25ZM353.678 138.887C353.261 139.543 353.734 140.387 354.208 141.003C354.95 141.965 355.731 142.899 356.547 143.799C356.871 144.156 357.226 144.523 357.693 144.64C358.2 144.767 358.776 144.539 359.058 144.099C359.34 143.66 359.309 143.041 358.983 142.633C358.22 141.678 357.457 140.723 356.694 139.768C356.309 139.286 355.902 138.786 355.338 138.534C354.775 138.281 354.009 138.366 353.678 138.887ZM316.471 81.2568C316.119 81.7718 316.58 82.4408 317.014 82.8883C318.531 84.4515 320.049 86.0147 321.566 87.5779C321.886 87.9084 322.276 88.2655 322.734 88.2183C323.311 88.1587 323.628 87.4447 323.49 86.8807C323.352 86.3168 322.913 85.8839 322.493 85.483C321.161 84.2112 319.829 82.9394 318.496 81.6676C318.211 81.3951 317.913 81.1147 317.539 80.9873C317.166 80.8599 316.693 80.9308 316.471 81.2568ZM348.595 116.362C348.093 116.369 347.752 116.94 347.797 117.44C347.843 117.94 348.154 118.371 348.454 118.774C349.534 120.223 350.613 121.672 351.693 123.121C351.903 123.404 352.124 123.696 352.437 123.858C352.749 124.021 353.181 124.013 353.408 123.743C353.734 123.355 353.453 122.773 353.168 122.354C351.988 120.617 350.809 118.881 349.629 117.144C349.376 116.771 349.047 116.356 348.595 116.362ZM365.927 138.621C364.572 136.986 363.217 135.351 361.862 133.717C361.699 133.52 361.519 133.312 361.272 133.247C360.79 133.119 360.333 133.639 360.329 134.138C360.326 134.637 360.622 135.083 360.915 135.487C361.818 136.736 362.795 137.93 363.84 139.063C364.211 139.465 364.636 139.883 365.179 139.951C365.722 140.018 366.343 139.513 366.167 138.994C366.119 138.853 366.022 138.736 365.927 138.621ZM320.933 100.718C321.275 101.089 321.676 101.487 322.181 101.495C322.685 101.502 323.137 100.817 322.759 100.484C321.223 99.1272 319.859 97.5758 318.711 95.8784C318.403 95.4229 318.078 94.9298 317.567 94.7263C317.057 94.5229 316.325 94.8078 316.313 95.3576C316.305 95.6835 316.54 95.9582 316.761 96.1977C318.152 97.7046 319.543 99.2115 320.933 100.718ZM349.027 93.5174C349.183 94.6921 350.312 95.6547 351.496 95.623C351.69 95.6177 351.898 95.5827 352.038 95.4485C352.176 95.3169 352.221 95.1181 352.26 94.9315C352.439 94.0601 352.451 92.8793 351.61 92.5891C351.264 92.4695 350.876 92.562 350.521 92.4689C350.273 92.4038 350.045 92.2489 349.789 92.2497C349.229 92.2514 348.953 92.963 349.027 93.5174ZM304.296 133.942C303.951 133.572 303.43 133.406 302.925 133.389C302.649 133.38 302.362 133.414 302.126 133.558C301.913 133.689 301.759 133.901 301.66 134.13C301.212 135.167 302.132 136.544 303.26 136.459C304.387 136.375 305.066 134.769 304.296 133.942ZM326.226 116.242C326.71 116.216 327.139 115.793 327.173 115.31C327.189 115.079 327.121 114.844 326.987 114.656C326.583 114.095 325.569 114.185 325.27 114.808C324.971 115.432 325.536 116.278 326.226 116.242ZM331.078 100.339C331.266 100.456 331.469 100.576 331.69 100.569C331.912 100.562 332.141 100.366 332.093 100.149C331.234 99.3588 330.375 98.5681 329.516 97.7775C329.293 98.2789 329.462 98.8852 329.798 99.3193C330.133 99.7533 330.611 100.051 331.078 100.339ZM344.764 115.197C345.099 115.487 345.635 114.99 345.544 114.557C345.453 114.124 345.036 113.851 344.654 113.627C344.272 113.403 343.855 113.132 343.76 112.7C343.206 113.516 344.018 114.551 344.764 115.197Z"
    fill="#22C55E" />
</svg>