<svg width="42" height="42" viewBox="0 0 42 42" fill="none" xmlns="http://www.w3.org/2000/svg">
<path d="M33.25 7H8.75C7.35761 7 6.02226 7.55312 5.03769 8.53769C4.05312 9.52226 3.5 10.8576 3.5 12.25V29.75C3.5 31.1424 4.05312 32.4777 5.03769 33.4623C6.02226 34.4469 7.35761 35 8.75 35H33.25C34.6424 35 35.9777 34.4469 36.9623 33.4623C37.9469 32.4777 38.5 31.1424 38.5 29.75V12.25C38.5 10.8576 37.9469 9.52226 36.9623 8.53769C35.9777 7.55312 34.6424 7 33.25 7ZM8.75 10.5H33.25C33.7141 10.5 34.1593 10.6844 34.4874 11.0126C34.8156 11.3408 35 11.7859 35 12.25L21 20.79L7 12.25C7 11.7859 7.18437 11.3408 7.51256 11.0126C7.84075 10.6844 8.28587 10.5 8.75 10.5ZM35 29.75C35 30.2141 34.8156 30.6593 34.4874 30.9874C34.1593 31.3156 33.7141 31.5 33.25 31.5H8.75C8.28587 31.5 7.84075 31.3156 7.51256 30.9874C7.18437 30.6593 7 30.2141 7 29.75V16.24L20.09 24.2375C20.356 24.3911 20.6578 24.472 20.965 24.472C21.2722 24.472 21.574 24.3911 21.84 24.2375L35 16.24V29.75Z" fill="#484848"/>
</svg>
