<svg width="42" height="42" viewBox="0 0 42 42" fill="none" xmlns="http://www.w3.org/2000/svg">
<path d="M21 3.93176C16.8446 3.93194 12.8248 5.41071 9.65993 8.1035C6.49506 10.7963 4.39161 14.5274 3.72597 18.6291C3.06033 22.7309 3.87592 26.9356 6.02681 30.4911C8.1777 34.0465 11.5235 36.7206 15.4656 38.0349C16.3406 38.188 16.6688 37.663 16.6688 37.2036C16.6688 36.788 16.6469 35.4099 16.6469 33.9443C12.25 34.7536 11.1125 32.8724 10.7625 31.8881C10.3741 30.9307 9.75847 30.0823 8.96874 29.4161C8.35624 29.088 7.48124 28.2786 8.94685 28.2568C9.50647 28.3175 10.0432 28.5123 10.5116 28.8245C10.98 29.1367 11.3662 29.5573 11.6375 30.0505C11.8768 30.4805 12.1987 30.859 12.5846 31.1644C12.9705 31.4697 13.4128 31.696 13.8863 31.8301C14.3598 31.9642 14.8551 32.0036 15.3438 31.946C15.8325 31.8883 16.305 31.7348 16.7343 31.4942C16.8101 30.6046 17.2066 29.7728 17.85 29.1537C13.9562 28.7162 9.88749 27.2067 9.88749 20.5131C9.8629 18.7738 10.5047 17.0911 11.6812 15.8099C11.1462 14.2983 11.2088 12.6394 11.8562 11.1724C11.8562 11.1724 13.3218 10.713 16.6687 12.9662C19.5322 12.1786 22.5552 12.1786 25.4187 12.9662C28.7656 10.6912 30.2312 11.1724 30.2312 11.1724C30.8787 12.6394 30.9413 14.2983 30.4062 15.8099C31.5863 17.0889 32.2287 18.7731 32.2 20.5131C32.2 27.2286 28.1093 28.7162 24.2156 29.1537C24.6333 29.577 24.9549 30.0852 25.1587 30.6438C25.3625 31.2025 25.4438 31.7984 25.3969 32.3912C25.3969 34.7319 25.375 36.613 25.375 37.2037C25.375 37.6631 25.7031 38.2099 26.5781 38.0349C30.5133 36.71 33.8495 34.0296 35.9912 30.4723C38.1329 26.9151 38.9408 22.7125 38.2705 18.6147C37.6003 14.5169 35.4955 10.7907 32.3321 8.10116C29.1686 5.41165 25.1522 3.93392 21 3.93176Z" fill="#484848"/>
</svg>
