<svg width="42" height="42" viewBox="0 0 42 42" fill="none" xmlns="http://www.w3.org/2000/svg">
<path d="M35.8225 3.5H6.17748C5.84424 3.49537 5.51336 3.55643 5.20372 3.6797C4.89408 3.80296 4.61176 3.98601 4.37288 4.2184C4.13399 4.45078 3.94322 4.72795 3.81147 5.03407C3.67971 5.34019 3.60955 5.66926 3.60498 6.0025V35.9975C3.60955 36.3307 3.67971 36.6598 3.81147 36.9659C3.94322 37.272 4.13399 37.5492 4.37288 37.7816C4.61176 38.014 4.89408 38.197 5.20372 38.3203C5.51336 38.4436 5.84424 38.5046 6.17748 38.5H35.8225C36.1557 38.5046 36.4866 38.4436 36.7962 38.3203C37.1059 38.197 37.3882 38.014 37.6271 37.7816C37.866 37.5492 38.0567 37.272 38.1885 36.9659C38.3203 36.6598 38.3904 36.3307 38.395 35.9975V6.0025C38.3904 5.66926 38.3203 5.34019 38.1885 5.03407C38.0567 4.72795 37.866 4.45078 37.6271 4.2184C37.3882 3.98601 37.1059 3.80296 36.7962 3.6797C36.4866 3.55643 36.1557 3.49537 35.8225 3.5ZM14.1575 32.795H8.90748V17.045H14.1575V32.795ZM11.5325 14.84C10.8084 14.84 10.1141 14.5524 9.60208 14.0404C9.0901 13.5284 8.80248 12.834 8.80248 12.11C8.80248 11.386 9.0901 10.6916 9.60208 10.1796C10.1141 9.66762 10.8084 9.38 11.5325 9.38C11.9169 9.3364 12.3063 9.37449 12.675 9.4918C13.0437 9.6091 13.3835 9.80296 13.6721 10.0607C13.9607 10.3184 14.1917 10.6342 14.3498 10.9873C14.5079 11.3405 14.5896 11.7231 14.5896 12.11C14.5896 12.4969 14.5079 12.8795 14.3498 13.2327C14.1917 13.5858 13.9607 13.9016 13.6721 14.1593C13.3835 14.417 13.0437 14.6109 12.675 14.7282C12.3063 14.8455 11.9169 14.8836 11.5325 14.84ZM33.0925 32.795H27.8425V24.3425C27.8425 22.225 27.09 20.8425 25.1825 20.8425C24.5921 20.8468 24.0173 21.032 23.5354 21.3731C23.0536 21.7141 22.6878 22.1947 22.4875 22.75C22.3505 23.1613 22.2912 23.5945 22.3125 24.0275V32.7775H17.0625C17.0625 32.7775 17.0625 18.4625 17.0625 17.0275H22.3125V19.25C22.7894 18.4224 23.4831 17.7407 24.3188 17.2781C25.1544 16.8155 26.1005 16.5897 27.055 16.625C30.555 16.625 33.0925 18.8825 33.0925 23.73V32.795Z" fill="#484848"/>
</svg>
