<svg width="112" height="107" viewBox="0 0 112 107" fill="none" xmlns="http://www.w3.org/2000/svg">
<g id="Logo">
<g id="Vector">
<path d="M96.8277 64.5796L67.5075 86.9727C67.2146 87.1964 66.8563 87.3175 66.4878 87.3175H48.759C47.152 87.3175 46.4621 85.2778 47.7393 84.3024L73.5632 64.5796L73.5711 64.5736C73.7167 64.4597 89.191 52.3421 88.7252 42.745C88.6401 40.9919 88.0154 39.1646 87.0642 37.3581L34.8262 80.7046C36.8712 82.5151 38.3775 83.6441 38.4286 83.6824L38.4374 83.689L64.2607 103.411C65.5379 104.387 64.848 106.427 63.241 106.427H45.5122C45.1437 106.427 44.7854 106.305 44.4925 106.082L15.1729 83.689L15.1641 83.6824C15.0033 83.562 0.445659 72.6503 0.0103106 63.6816C-0.455541 54.0844 15.0188 41.9668 15.1644 41.853L15.1723 41.847L44.4925 19.4539C44.7854 19.2302 45.1437 19.109 45.5122 19.109H63.241C64.848 19.109 65.5379 21.1487 64.2607 22.1241L38.4368 41.847L38.4313 41.8511L38.4289 41.853C38.2833 41.9668 22.809 54.0844 23.2748 63.6816C23.3928 66.1121 24.5479 68.6854 26.1726 71.1479L78.9531 27.3513C76.0612 24.6102 73.6365 22.7929 73.5714 22.7442L73.5626 22.7375L47.7393 3.01514C46.4621 2.0397 47.152 0 48.759 0H66.4878C66.8563 0 67.2146 0.121177 67.5075 0.344858L96.8271 22.7375L96.8359 22.7442C96.9968 22.8645 111.554 33.7762 111.99 42.745C112.456 52.3421 96.9812 64.4598 96.8356 64.5736L96.8277 64.5796Z" fill="#F5F5F4"/>
<path d="M71.3934 106.427C75.0578 106.427 78.0284 103.456 78.0284 99.7915C78.0284 96.127 75.0578 93.1564 71.3934 93.1564C67.7289 93.1564 64.7583 96.127 64.7583 99.7915C64.7583 103.456 67.7289 106.427 71.3934 106.427Z" fill="#F5F5F4"/>
</g>
</g>
</svg>
