<svg width="32" height="32" viewBox="0 0 32 32" fill="none" xmlns="http://www.w3.org/2000/svg">
<path fill-rule="evenodd" clip-rule="evenodd" d="M12.6667 5.99682L16 7.37481L19.3334 5.99682C21.4732 5.11223 23.8602 5.11223 26 5.99682L28.4952 7.02832C29.0014 7.23759 29.3334 7.74429 29.3334 8.30776V24.6314C29.3334 25.3924 28.7364 26.0094 28 26.0094C27.8304 26.0094 27.6623 25.9759 27.5048 25.9108L26 25.2887C23.8602 24.4041 21.4732 24.4041 19.3334 25.2887L16 26.6667L12.6667 25.2887C10.5269 24.4041 8.13982 24.4041 6.00002 25.2887L4.49521 25.9108C3.8115 26.1934 3.03554 25.8498 2.76205 25.1431C2.69905 24.9804 2.66669 24.8067 2.66669 24.6314V8.30776C2.66669 7.74429 2.99862 7.23759 3.50483 7.02832L6.00002 5.99682C8.13982 5.11223 10.5269 5.11223 12.6667 5.99682ZM7.01879 8.46121L5.33335 9.15796V22.6855C8.03392 21.6721 11.0101 21.7183 13.6855 22.8243L14.6667 23.2294V9.70937L11.6479 8.46121C10.1605 7.84632 8.50619 7.84632 7.01879 8.46121ZM20.3521 8.46121L17.3334 9.70804V23.2294L18.3146 22.8243C20.99 21.7183 23.9661 21.6721 26.6667 22.6855V9.15796L24.9812 8.46121C23.4938 7.84632 21.8395 7.84632 20.3521 8.46121Z" fill="#19A6A5"/>
</svg>
