<svg width="80" height="80" viewBox="0 0 80 80" fill="none" xmlns="http://www.w3.org/2000/svg">
<path d="M68.3333 8.33334H11.6667L16.6667 65L40 71.6667L63.3333 65L68.3333 8.33334Z" fill="#0277BD"/>
<path d="M40 13.3333V66.5L58.6667 61.1667L62.8333 13.3333H40Z" fill="#039BE5"/>
<path d="M55.1666 21.6667H40V28.3333H48.1667L47.6667 35H40V41.6666H47.3333L46.8333 49.1666L40 51.5V58.5L53.1667 54.1666L54.3333 35L55.1666 21.6667Z" fill="white"/>
<path d="M40 21.6667V28.3333H25.1667L24.6667 21.6667H40ZM32.3333 35L32.6667 41.6666H40V35H32.3333ZM33 45H26.3333L26.8333 54.1666L40 58.5V51.5L33.1667 49.1666L33 45Z" fill="#EEEEEE"/>
</svg>
