<svg width="80" height="80" viewBox="0 0 80 80" fill="none" xmlns="http://www.w3.org/2000/svg">
<path d="M70.3333 36.8333L43.1666 9.66665C42.3333 8.83331 41.1666 8.33331 40 8.33331C38.8333 8.33331 37.6666 8.83331 36.8333 9.66665L31 15.5L37.8333 22.3333C38.5 22 39.1666 21.8333 40 21.8333C42.8333 21.8333 45 24 45 26.8333C45 27.6666 44.8333 28.3333 44.5 29L51.1666 35.6666C51.8333 35.3333 52.5 35.1666 53.3333 35.1666C56.1666 35.1666 58.3333 37.3333 58.3333 40.1666C58.3333 43 56.1666 45.1666 53.3333 45.1666C50.5 45.1666 48.3333 43 48.3333 40.1666C48.3333 39.3333 48.5 38.6666 48.8333 38L42.1666 31.3333C42 31.3333 41.8333 31.5 41.6666 31.5V48.8333C43.6666 49.5 45 51.3333 45 53.5C45 56.3333 42.8333 58.5 40 58.5C37.1666 58.5 35 56.3333 35 53.5C35 51.3333 36.3333 49.5 38.3333 48.8333V31.3333C36.3333 30.6666 35 28.8333 35 26.6666C35 25.8333 35.1666 25.1666 35.5 24.5L28.6666 17.6666L9.66665 36.8333C8.83331 37.6666 8.33331 38.8333 8.33331 40C8.33331 41.1666 8.83331 42.3333 9.66665 43.1666L36.8333 70.3333C37.6666 71.1666 38.8333 71.6666 40 71.6666C41.1666 71.6666 42.3333 71.1666 43.1666 70.3333L70.3333 43.1666C71.1666 42.3333 71.6666 41.1666 71.6666 40C71.6666 38.8333 71.1666 37.6666 70.3333 36.8333Z" fill="#F4511E"/>
</svg>
