<svg width="80" height="80" viewBox="0 0 80 80" fill="none" xmlns="http://www.w3.org/2000/svg">
<path d="M68.3333 8.33334H11.6667L16.6667 65L40 71.6667L63.3333 65L68.3333 8.33334Z" fill="#E65100"/>
<path d="M40 13.3333V66.5L58.6667 61.1667L62.8333 13.3333H40Z" fill="#FF6D00"/>
<path d="M40 41.6667V35H54.3333L53.1667 54.1667L40 58.5V51.5L46.8333 49.1667L47.3333 41.6667H40ZM54.8333 28.3333L55.3333 21.6667H40V28.3333H54.8333Z" fill="white"/>
<path d="M40 51.5V58.5L26.8333 54.1667L26.1667 45H32.8333L33.1667 49.1667L40 51.5ZM31.8333 28.3333H40V21.6667H24.8333L26 41.6667H40V35H32.3333L31.8333 28.3333Z" fill="#EEEEEE"/>
</svg>
