<svg width="80" height="80" viewBox="0 0 80 80" fill="none" xmlns="http://www.w3.org/2000/svg">
<path d="M10 70V10H70V70H10Z" fill="#FFD600"/>
<path d="M49.23 54.9117C50.3833 56.785 51.6367 58.58 54.2917 58.58C56.5217 58.58 57.6917 57.4717 57.6917 55.9383C57.6917 54.1033 56.4817 53.4517 54.0283 52.3833L52.6833 51.81C48.8017 50.1633 46.22 48.1 46.22 43.7417C46.22 39.725 49.295 36.6683 54.1 36.6683C57.5217 36.6683 59.98 37.8533 61.7533 40.9567L57.5633 43.635C56.6417 41.9883 55.645 41.34 54.1 41.34C52.5233 41.34 51.525 42.335 51.525 43.635C51.525 45.2417 52.525 45.8917 54.8333 46.8867L56.1783 47.46C60.7533 49.4083 63.3333 51.3983 63.3333 55.8717C63.3333 60.6917 59.5267 63.3333 54.4167 63.3333C49.4183 63.3333 46.58 60.825 45 57.72L49.23 54.9117ZM29.92 55.0483C30.7633 56.5583 32.045 57.72 33.8883 57.72C35.6517 57.72 36.6667 57.0233 36.6667 54.315V36.6667H42.2217V55.1683C42.2217 60.78 38.9667 63.3333 34.2133 63.3333C29.9183 63.3333 26.8183 60.4233 25.555 57.72L29.92 55.0483Z" fill="#000001"/>
</svg>
