<svg width="80" height="80" viewBox="0 0 80 80" fill="none" xmlns="http://www.w3.org/2000/svg">
<path d="M40 17.5C29.7229 17.5 19.8666 19.8934 12.5996 24.1538C5.33258 28.4142 1.25 34.1924 1.25 40.2175C1.25 46.2426 5.33258 52.0208 12.5996 56.2812C19.8666 60.5416 29.7229 62.935 40 62.935C50.2771 62.935 60.1334 60.5416 67.4004 56.2812C74.6674 52.0208 78.75 46.2426 78.75 40.2175C78.75 34.1924 74.6674 28.4142 67.4004 24.1538C60.1334 19.8934 50.2771 17.5 40 17.5Z" fill="#B5C4E0"/>
<path d="M40 17.5C18.5987 17.5 1.25 27.6713 1.25 40.2175C1.25 52.7637 18.5987 62.935 40 62.935C61.4012 62.935 78.75 52.7637 78.75 40.2175C78.75 27.6713 61.4012 17.5 40 17.5ZM40 56.685C20.8475 56.685 7.5 48.0075 7.5 40.2175C7.5 32.4288 20.8475 23.75 40 23.75C59.1525 23.75 72.5 32.4288 72.5 40.2175C72.5 48.0063 59.1525 56.685 40 56.685Z" fill="#CED9ED"/>
<path d="M53.0437 33.0438L49.6275 51.5763H54.085L54.9725 46.5225H57.7462C63.5525 46.5225 66.7112 45.1775 67.8925 40.195C68.9087 35.9138 66.3125 33.045 62.03 33.045H53.0437V33.0438ZM58.4825 43.1525H55.6012L56.8737 36.4138H60.3462C63.2237 36.4138 63.8287 37.7113 63.6787 39.155C63.2925 42.8713 60.975 43.1525 58.4825 43.1525ZM17.6625 33.0438L14.2462 51.5763H18.7037L19.5912 46.5225H22.365C28.1712 46.5225 31.33 45.1775 32.5112 40.195C33.5275 35.9138 30.9312 33.045 26.6487 33.045H17.6625V33.0438ZM23.1012 43.1525H20.22L21.4925 36.4138H24.965C27.8425 36.4138 28.4475 37.7113 28.2975 39.155C27.9112 42.8713 25.595 43.1525 23.1012 43.1525ZM49.1387 34.2688C48.1862 33.3963 46.5087 33.0438 44.0075 33.0438H40.0662L41.4712 26.305H37.05L32.8262 46.5225H37.2487L39.3812 36.4138H42.9162C44.0437 36.4138 44.7875 36.6025 45.135 36.975C45.48 37.3513 45.5562 38.0588 45.3562 39.0825L43.7425 46.5225H48.2337L49.9825 38.4725C50.3575 36.5425 50.0737 35.1275 49.1387 34.2688Z" fill="#8D6C9E"/>
<path d="M40 64.185C17.9437 64.185 0 53.4325 0 40.2175C0 27.0025 17.9437 16.25 40 16.25C62.0563 16.25 80 27.0025 80 40.2175C80 53.4325 62.0563 64.185 40 64.185ZM40 18.75C19.3225 18.75 2.5 28.38 2.5 40.2175C2.5 52.055 19.3225 61.685 40 61.685C60.6775 61.685 77.5 52.055 77.5 40.2175C77.5 28.38 60.6775 18.75 40 18.75ZM73.3662 63.3337C72.9538 63.3337 72.55 63.13 72.31 62.755L70.9675 60.6462C70.5962 60.0637 70.7688 59.2913 71.3512 58.92C71.9313 58.55 72.705 58.72 73.0775 59.3037L74.42 61.4125C74.7913 61.995 74.6188 62.7675 74.0362 63.1388C73.8288 63.27 73.5963 63.3337 73.3662 63.3337ZM68.0575 66.255C67.5887 66.255 67.14 65.99 66.9263 65.5387L65.8587 63.2775C65.565 62.6538 65.8325 61.9075 66.4563 61.6138C67.0825 61.3175 67.825 61.5875 68.12 62.2113L69.1875 64.4725C69.4812 65.0962 69.2138 65.8425 68.59 66.1362C68.4175 66.2175 68.2363 66.255 68.0575 66.255ZM62.4613 68.5213C61.9438 68.5213 61.4587 68.1963 61.28 67.68L60.4625 65.3162C60.2362 64.6637 60.5837 63.9512 61.235 63.7262C61.8862 63.5012 62.5987 63.8475 62.825 64.4987L63.6425 66.8625C63.8688 67.515 63.5213 68.2275 62.87 68.4525C62.735 68.5 62.5963 68.5213 62.4613 68.5213ZM56.68 70.2138C56.1163 70.2138 55.605 69.8287 55.4663 69.2562L54.8787 66.8262C54.7163 66.1562 55.1287 65.48 55.8 65.3188C56.4613 65.155 57.145 65.5688 57.3075 66.24L57.895 68.67C58.0575 69.34 57.645 70.0162 56.9737 70.1775C56.8762 70.2025 56.7775 70.2138 56.68 70.2138ZM50.7762 71.3662C50.1675 71.3662 49.6338 70.9213 49.5412 70.3L49.1713 67.8263C49.07 67.1438 49.54 66.5075 50.2238 66.405C50.9137 66.3125 51.5438 66.775 51.645 67.4575L52.015 69.9313C52.1162 70.6138 51.6463 71.25 50.9625 71.3525C50.9 71.3613 50.8375 71.3662 50.7762 71.3662ZM44.8013 71.995C44.1488 71.995 43.5975 71.4875 43.555 70.825L43.3937 68.33C43.35 67.6413 43.8725 67.0475 44.5612 67.0013C45.2412 66.9675 45.845 67.48 45.89 68.1688L46.0513 70.6637C46.095 71.3525 45.5725 71.9463 44.8838 71.9925C44.8563 71.9938 44.8275 71.995 44.8013 71.995Z" fill="#8D6C9F"/>
<path d="M27.3275 26.4512C26.7675 26.4512 26.2575 26.0712 26.115 25.5025C25.9488 24.8325 26.3575 24.1537 27.0263 23.9875C28.7075 23.57 30.4838 23.215 32.3063 22.9312C32.99 22.8262 33.6275 23.2925 33.7338 23.9737C33.84 24.6562 33.3725 25.295 32.6913 25.4012C30.9413 25.6737 29.2388 26.0137 27.63 26.4137C27.5288 26.44 27.4275 26.4512 27.3275 26.4512Z" fill="#8D6C9F"/>
<path d="M8.74871 37.4962C8.54496 37.4962 8.33871 37.4462 8.14746 37.3412C7.54621 37.0087 7.32371 36.255 7.65246 35.6512C7.78871 35.4012 11.1112 29.495 21.9325 25.5375C22.5775 25.2987 23.2975 25.6337 23.535 26.2825C23.7725 26.9312 23.4387 27.6487 22.79 27.885C12.935 31.4887 9.87246 36.8012 9.84371 36.8537C9.61496 37.265 9.18746 37.4962 8.74871 37.4962Z" fill="#8D6C9F"/>
</svg>
