<svg width="80" height="80" viewBox="0 0 80 80" fill="none" xmlns="http://www.w3.org/2000/svg">
<path d="M40 57.84C17.195 57.84 0 50.17 0 40C0 29.83 17.195 22.16 40 22.16C62.805 22.16 80 29.83 80 40C80 50.17 62.805 57.84 40 57.84ZM40 27.16C19.375 27.16 5 33.925 5 40C5 46.075 19.375 52.84 40 52.84C60.625 52.84 75 46.075 75 40C75 33.925 60.625 27.16 40 27.16Z" fill="#4E7AB5"/>
<path d="M25.135 75C23.385 75 21.795 74.595 20.4 73.79C18.125 72.48 16.485 70.16 15.66 67.075C13.435 58.76 17.03 44.705 24.825 31.27C33.96 15.555 46.03 5 54.87 5C56.62 5 58.21 5.405 59.605 6.21C61.875 7.515 63.515 9.835 64.34 12.915C66.565 21.235 62.97 35.29 55.17 48.725C46.05 64.44 33.98 75 25.135 75ZM54.87 10C49.1 10 38.125 18.335 29.15 33.785C22.1 45.935 18.62 58.795 20.49 65.785C20.975 67.58 21.78 68.815 22.89 69.455C27.745 72.245 40.52 64.005 50.845 46.21C57.9 34.055 61.38 21.195 59.51 14.205C59.025 12.415 58.22 11.18 57.115 10.545C56.475 10.18 55.74 10 54.87 10Z" fill="#4E7AB5"/>
<path d="M54.87 75C46.025 75 33.955 64.44 24.83 48.73C17.03 35.3 13.435 21.245 15.66 12.925C16.485 9.84 18.125 7.515 20.4 6.21C21.795 5.405 23.39 5 25.135 5C33.975 5 46.045 15.56 55.17 31.28C62.97 44.715 66.565 58.765 64.335 67.085C63.51 70.17 61.875 72.49 59.605 73.79C58.21 74.595 56.615 75 54.87 75ZM25.135 10C24.265 10 23.53 10.18 22.89 10.545C21.775 11.185 20.97 12.42 20.49 14.22C18.62 21.21 22.1 34.07 29.155 46.22C38.12 61.665 49.095 70 54.87 70C55.745 70 56.475 69.82 57.115 69.455C58.225 68.82 59.03 67.585 59.51 65.79C61.385 58.8 57.905 45.94 50.85 33.79C41.88 18.335 30.905 10 25.135 10Z" fill="#4E7AB5"/>
<path d="M45 40C45 42.765 42.765 45 40 45C37.235 45 35 42.765 35 40C35 37.235 37.235 35 40 35C42.765 35 45 37.235 45 40Z" fill="#8BB7F0"/>
<path d="M40 47.5C35.865 47.5 32.5 44.135 32.5 40C32.5 35.865 35.865 32.5 40 32.5C44.135 32.5 47.5 35.865 47.5 40C47.5 44.135 44.135 47.5 40 47.5ZM40 37.5C38.625 37.5 37.5 38.62 37.5 40C37.5 41.38 38.625 42.5 40 42.5C41.375 42.5 42.5 41.38 42.5 40C42.5 38.62 41.375 37.5 40 37.5Z" fill="#4E7AB5"/>
</svg>
