<svg width="80" height="80" viewBox="0 0 80 80" fill="none" xmlns="http://www.w3.org/2000/svg">
<path d="M70 10H10V70H70V10Z" fill="#1976D2"/>
<path d="M45.8167 36.6667H23.7117V42.1067H31.64V66.6667H37.9217V42.1067H45.8167V36.6667Z" fill="white"/>
<path d="M65.3234 43.4733C65.3234 43.4733 62.345 41.4867 58.9784 41.4867C55.6117 41.4867 54.4 43.0867 54.4 44.7967C54.4 49.21 66.7017 48.7683 66.7017 57.65C66.7017 71.3317 47.945 65.2634 47.945 65.2634V58.7C47.945 58.7 51.5317 61.4034 55.8334 61.4034C60.135 61.4034 59.9717 58.59 59.9717 58.2034C59.9717 54.1217 47.78 54.1217 47.78 45.0733C47.78 32.7717 65.5434 37.625 65.5434 37.625L65.3234 43.4733Z" fill="white"/>
</svg>
