<svg width="80" height="80" viewBox="0 0 80 80" fill="none" xmlns="http://www.w3.org/2000/svg">
<path d="M40 6.75C31.1816 6.75 22.7243 10.2531 16.4887 16.4887C10.2531 22.7243 6.75 31.1816 6.75 40C6.75 48.8184 10.2531 57.2757 16.4887 63.5113C22.7243 69.7469 31.1816 73.25 40 73.25C48.8184 73.25 57.2757 69.7469 63.5113 63.5113C69.7469 57.2757 73.25 48.8184 73.25 40C73.25 31.1816 69.7469 22.7243 63.5113 16.4887C57.2757 10.2531 48.8184 6.75 40 6.75Z" fill="white"/>
<path d="M13.335 40C13.335 50.56 19.4684 59.6766 28.365 64L15.6417 29.1466C14.1634 32.465 13.335 36.1266 13.335 40ZM58.0067 38.6566C58.0067 35.3616 56.235 33.0733 55.2234 31.3033C53.8684 29.0883 52.5967 27.2416 52.5967 25.05C52.5967 22.6083 55.0484 20.3166 57.665 20.3166C57.7834 20.3166 57.89 20.3266 58.0084 20.33C53.2684 15.9733 46.9467 13.3333 40.0017 13.3333C31.02 13.3333 23.08 17.7766 18.2484 24.5816C18.6284 24.705 18.76 24.6466 19.2667 24.6466C22.0484 24.6466 26.3734 24.3133 26.3734 24.3133C27.8067 24.2183 27.9817 26.3333 26.5384 26.5066C26.5384 26.5066 25.0984 26.6816 23.4917 26.76L33.3767 56.39L39.21 38.8883L34.8717 26.8083C33.4367 26.7316 32.0734 26.555 32.0734 26.555C30.6367 26.4616 30.8034 24.2633 32.2367 24.3616C32.2367 24.3616 36.65 24.695 39.265 24.695C42.0567 24.695 46.3717 24.3616 46.3717 24.3616C47.8067 24.2666 47.98 26.3816 46.545 26.555C46.545 26.555 45.095 26.73 43.4917 26.8083L53.31 56.1583L55.975 47.2816C57.3317 43.815 58.0067 40.9483 58.0067 38.6566ZM40.4684 42.3266L32.4684 65.58C34.8617 66.29 37.385 66.6666 40.0017 66.6666C43.1034 66.6666 46.0834 66.1266 48.8617 65.155C48.795 65.0366 48.72 64.9166 48.665 64.7883L40.4684 42.3266ZM63.405 27.1966C63.5234 28.0466 63.585 28.9616 63.585 29.9383C63.585 32.6516 63.075 35.69 61.5534 39.5L53.4117 63.0583C61.3417 58.4383 66.6667 49.8366 66.6667 40C66.6667 35.365 65.4817 31.0066 63.405 27.1966Z" fill="#01579B"/>
<path d="M6.66669 40C6.66669 58.3734 21.6167 73.3334 39.9984 73.3334C58.3834 73.3334 73.3334 58.3734 73.3334 40C73.3334 21.6267 58.3834 6.66669 40 6.66669C21.6167 6.66669 6.66669 21.6267 6.66669 40ZM9.99169 40C9.99169 23.46 23.4484 10.0017 39.9984 10.0017C56.5484 10.0017 70.0084 23.46 70.0084 40C70.0084 56.54 56.5484 70.0017 40 70.0017C23.4534 70.0017 9.99169 56.54 9.99169 40Z" fill="#01579B"/>
</svg>
