<svg width="16" height="16" viewBox="0 0 16 16" fill="none" xmlns="http://www.w3.org/2000/svg">
<path fill-rule="evenodd" clip-rule="evenodd" d="M12.6667 2.66667C13.7712 2.66667 14.6667 3.5621 14.6667 4.66667V11.3333C14.6667 12.4379 13.7712 13.3333 12.6667 13.3333H3.33334C2.22877 13.3333 1.33334 12.4379 1.33334 11.3333V4.66667C1.33334 3.5621 2.22877 2.66667 3.33334 2.66667H12.6667ZM13.3333 4.88534L8.43901 9.16839C8.20861 9.36999 7.87405 9.38679 7.62628 9.21879L7.56101 9.16839L2.66668 4.886V11.3333C2.66668 11.7015 2.96515 12 3.33334 12H12.6667C13.0349 12 13.3333 11.7015 13.3333 11.3333V4.88534ZM12.32 4.00001H3.67867L8.00001 7.78083L12.32 4.00001Z" fill="#19A6A5"/>
</svg>
