<svg width="16" height="16" viewBox="0 0 16 16" fill="none" xmlns="http://www.w3.org/2000/svg">
<path fill-rule="evenodd" clip-rule="evenodd" d="M7.33334 1.33333H8.66668C9.7318 1.33333 10.6025 2.16594 10.6633 3.21581L10.6667 3.33333V3.99999H12.6667C13.7712 3.99999 14.6667 4.89543 14.6667 6V12.6667C14.6667 13.7712 13.7712 14.6667 12.6667 14.6667H3.33334C2.22877 14.6667 1.33334 13.7712 1.33334 12.6667V6C1.33334 4.89543 2.22877 3.99999 3.33334 3.99999H5.33334V3.33333C5.33334 2.26821 6.16596 1.39755 7.21583 1.33672L7.33334 1.33333H8.66668H7.33334ZM13.3333 10.6667H2.66668V12.6667C2.66668 13.0349 2.96515 13.3333 3.33334 13.3333H12.6667C13.0349 13.3333 13.3333 13.0349 13.3333 12.6667V10.6667ZM12.6667 5.33333H3.33334C2.96515 5.33333 2.66668 5.6318 2.66668 5.99999V9.33333H13.3333V5.99999C13.3333 5.6318 13.0349 5.33333 12.6667 5.33333ZM8.66668 2.66666H7.33334C6.99145 2.66666 6.70967 2.92402 6.67116 3.25558L6.66668 3.33333V3.99999H9.33334V3.33333C9.33334 2.99144 9.07598 2.70966 8.74442 2.67115L8.66668 2.66666Z" fill="#19A6A5"/>
</svg>
