<svg width="16" height="16" viewBox="0 0 16 16" fill="none" xmlns="http://www.w3.org/2000/svg">
<path fill-rule="evenodd" clip-rule="evenodd" d="M8 1.33333C11.3137 1.33333 14 3.99048 14 7.26824C14 9.43723 12.1851 11.7305 8.63217 14.2288L8 14.6667L7.61853 14.4034C3.90028 11.8373 2 9.48767 2 7.26824C2 3.99048 4.68629 1.33333 8 1.33333ZM8 2.6522C5.42267 2.6522 3.33333 4.71887 3.33333 7.26824C3.33333 8.8699 4.86448 10.8243 8 13.0545C11.1355 10.8243 12.6667 8.8699 12.6667 7.26824C12.6667 4.71887 10.5773 2.6522 8 2.6522ZM8 3.99999C9.47276 3.99999 10.6667 5.1939 10.6667 6.66666C10.6667 8.13942 9.47276 9.33333 8 9.33333C6.52724 9.33333 5.33333 8.13942 5.33333 6.66666C5.33333 5.1939 6.52724 3.99999 8 3.99999ZM8 5.33333C7.26362 5.33333 6.66667 5.93028 6.66667 6.66666C6.66667 7.40304 7.26362 7.99999 8 7.99999C8.73638 7.99999 9.33333 7.40304 9.33333 6.66666C9.33333 5.93028 8.73638 5.33333 8 5.33333Z" fill="#19A6A5"/>
</svg>
