<svg width="18" height="18" viewBox="0 0 18 18" fill="none" xmlns="http://www.w3.org/2000/svg">
<path fill-rule="evenodd" clip-rule="evenodd" d="M12.75 1.5C13.1642 1.5 13.5 1.83579 13.5 2.25V3H14.25C15.4926 3 16.5 4.00736 16.5 5.25V14.25C16.5 15.4926 15.4926 16.5 14.25 16.5H3.75C2.50736 16.5 1.5 15.4926 1.5 14.25V5.25C1.5 4.00736 2.50736 3 3.75 3H4.5V2.25C4.5 1.83579 4.83579 1.5 5.25 1.5C5.66421 1.5 6 1.83579 6 2.25V3H12V2.25C12 1.83579 12.3358 1.5 12.75 1.5ZM3 9V14.25C3 14.6642 3.33579 15 3.75 15H14.25C14.6642 15 15 14.6642 15 14.25V9H3ZM3 7.5H15V5.25C15 4.83579 14.6642 4.5 14.25 4.5H13.5V5.25C13.5 5.66421 13.1642 6 12.75 6C12.3358 6 12 5.66421 12 5.25V4.5H6V5.25C6 5.66421 5.66421 6 5.25 6C4.83579 6 4.5 5.66421 4.5 5.25V4.5H3.75C3.33579 4.5 3 4.83579 3 5.25V7.5Z" fill="#A8FE75"/>
</svg>
