<svg width="18" height="18" viewBox="0 0 18 18" fill="none" xmlns="http://www.w3.org/2000/svg">
<path fill-rule="evenodd" clip-rule="evenodd" d="M8.25 1.5H9.75C10.9483 1.5 11.9277 2.43669 11.9962 3.6178L12 3.75V4.5H14.25C15.4926 4.5 16.5 5.50736 16.5 6.75V14.25C16.5 15.4926 15.4926 16.5 14.25 16.5H3.75C2.50736 16.5 1.5 15.4926 1.5 14.25V6.75C1.5 5.50736 2.50736 4.5 3.75 4.5H6V3.75C6 2.55174 6.93669 1.57225 8.1178 1.50382L8.25 1.5H9.75H8.25ZM15 12H3V14.25C3 14.6642 3.33579 15 3.75 15H14.25C14.6642 15 15 14.6642 15 14.25V12ZM14.25 6H3.75C3.33579 6 3 6.33579 3 6.75V10.5H15V6.75C15 6.33579 14.6642 6 14.25 6ZM9.75 3H8.25C7.86537 3 7.54837 3.28953 7.50505 3.66253L7.5 3.75V4.5H10.5V3.75C10.5 3.36537 10.2105 3.04837 9.83747 3.00505L9.75 3Z" fill="#A8FE75"/>
</svg>
